<svg width="512" height="512" viewBox="0 0 512 512" fill="none" xmlns="http://www.w3.org/2000/svg" role="img" aria-label="SagaNote icon">
  <title>SagaNote</title>
  <rect width="512" height="512" rx="96" fill="#111111" />
  <!-- White feather quill, centered with maskable safe padding -->
  <g transform="translate(78,70) scale(0.7)" stroke="#FFFFFF" stroke-width="14" stroke-linecap="round" stroke-linejoin="round" fill="none">
    <path d="M196 250
             C 210 150, 280 80, 372 64
             C 360 150, 320 210, 250 250
             C 300 234, 340 196, 360 150
             C 352 210, 318 252, 262 276
             C 300 268, 330 244, 348 214
             C 340 256, 308 286, 262 300
             Z" />
    <path d="M360 92
             C 300 168, 252 232, 214 300
             C 196 332, 184 360, 176 386" />
    <path d="M300 160 L 262 196" />
    <path d="M276 206 L 240 240" />
    <path d="M250 252 L 216 286" />
    <path d="M176 386 L 160 410 L 184 402 Z" fill="#FFFFFF" />
    <path d="M150 420
             C 240 470, 380 470, 430 392
             C 446 366, 444 326, 412 308
             C 392 296, 366 300, 352 320
             C 344 332, 346 348, 360 354" />
    <path d="M150 420 C 176 436, 210 444, 248 446" />
  </g>
</svg>
