<?xml version="1.0" encoding="UTF-8"?>
<svg version="1.1" xmlns="http://www.w3.org/2000/svg" viewBox="-12 14 256 256" width="256" height="256" role="img" aria-label="SagaNote">
<title>SagaNote</title>
<path d="M0 0 C1.60294922 0.01353516 1.60294922 0.01353516 3.23828125 0.02734375 C4.04652344 0.03894531 4.85476562 0.05054688 5.6875 0.0625 C6.1415821 6.5331699 5.34038056 9.69061682 1.6875 15.0625 C1.0275 15.7225 0.3675 16.3825 -0.3125 17.0625 C-0.60769531 17.82949219 -0.90289062 18.59648438 -1.20703125 19.38671875 C-3.22646867 24.27475633 -6.94521173 28.03773026 -10.3125 32.0625 C-10.89515625 32.79339844 -11.4778125 33.52429687 -12.078125 34.27734375 C-19.50885285 43.32269237 -28.40550001 47.25263602 -39.3125 51.0625 C-37.24886888 50.60928672 -35.18663493 50.14970894 -33.125 49.6875 C-31.97644531 49.43226562 -30.82789063 49.17703125 -29.64453125 48.9140625 C-26.72442652 48.16777548 -24.07296611 47.25818212 -21.3125 46.0625 C-24.88795536 51.91228347 -28.45037954 57.48050075 -33.04296875 62.58203125 C-34.7549843 64.57850477 -35.9786767 66.80079961 -37.3125 69.0625 C-38.97916667 71.0625 -40.64583333 73.0625 -42.3125 75.0625 C-42.745625 75.866875 -43.17875 76.67125 -43.625 77.5 C-50.1285866 87.37581668 -61.4045478 91.82173159 -72.3125 95.0625 C-62.04044382 92.88988356 -62.04044382 92.88988356 -52.3125 89.0625 C-53.76708784 93.18383221 -55.85966331 96.45989611 -58.3125 100.0625 C-58.99518138 101.38770503 -59.6632041 102.72062182 -60.3125 104.0625 C-61.8467421 106.8520311 -63.20811922 108.96110153 -65.5 111.1875 C-67.66001105 112.98735573 -67.66001105 112.98735573 -67.3125 116.0625 C-73.76610585 126.93670767 -83.18806691 133.50028346 -94.3125 139.0625 C-93.48105469 138.7015625 -92.64960937 138.340625 -91.79296875 137.96875 C-90.70628906 137.5046875 -89.61960937 137.040625 -88.5 136.5625 C-87.42105469 136.0984375 -86.34210938 135.634375 -85.23046875 135.15625 C-82.3125 134.0625 -82.3125 134.0625 -79.3125 134.0625 C-81.9525 136.0425 -84.5925 138.0225 -87.3125 140.0625 C-86.6525 140.0625 -85.9925 140.0625 -85.3125 140.0625 C-84.3225 140.3925 -83.3325 140.7225 -82.3125 141.0625 C-98.62159091 152.17159091 -98.62159091 152.17159091 -106.3125 155.0625 C-103.68684172 156.37532914 -102.61413271 155.79019681 -99.8125 155.0625 C-95.53472222 153.95138889 -95.53472222 153.95138889 -93.3125 155.0625 C-98.48080006 158.2514511 -103.49988629 160.32267005 -109.3125 162.0625 C-109.3125 162.3925 -109.3125 162.7225 -109.3125 163.0625 C-104.84410785 163.27528058 -101.48987474 162.65388085 -97.3125 161.0625 C-100.03728774 164.42841427 -103.38106792 165.50476276 -107.3125 167.0625 C-106.9825 167.7225 -106.6525 168.3825 -106.3125 169.0625 C-108.9525 169.3925 -111.5925 169.7225 -114.3125 170.0625 C-114.3125 170.3925 -114.3125 170.7225 -114.3125 171.0625 C-116.2925 171.3925 -118.2725 171.7225 -120.3125 172.0625 C-115.28600697 173.63327907 -110.55130078 174.51104729 -105.3125 175.0625 C-105.3125 175.3925 -105.3125 175.7225 -105.3125 176.0625 C-106.27671875 176.05089844 -107.2409375 176.03929687 -108.234375 176.02734375 C-109.49765625 176.01832031 -110.7609375 176.00929687 -112.0625 176 C-113.94195312 175.98259766 -113.94195312 175.98259766 -115.859375 175.96484375 C-118.59786501 176.04228973 -120.73130293 176.23469185 -123.3125 177.0625 C-122.796875 177.84625 -122.28125 178.63 -121.75 179.4375 C-121.275625 180.30375 -120.80125 181.17 -120.3125 182.0625 C-120.6425 182.7225 -120.9725 183.3825 -121.3125 184.0625 C-121.9725 183.7325 -122.6325 183.4025 -123.3125 183.0625 C-123.6425 183.7225 -123.9725 184.3825 -124.3125 185.0625 C-125.9625 184.0725 -127.6125 183.0825 -129.3125 182.0625 C-129.3125 182.7225 -129.3125 183.3825 -129.3125 184.0625 C-129.9725 184.3925 -130.6325 184.7225 -131.3125 185.0625 C-131.6425 186.0525 -131.9725 187.0425 -132.3125 188.0625 C-133.3025 186.0825 -133.3025 186.0825 -134.3125 184.0625 C-135.3025 184.0625 -136.2925 184.0625 -137.3125 184.0625 C-137.9725 184.0625 -138.6325 184.0625 -139.3125 184.0625 C-139.18875 185.01125 -139.065 185.96 -138.9375 186.9375 C-138.90894455 191.64914906 -141.31272775 194.73879039 -143.79296875 198.58984375 C-145.85001135 201.93716499 -147.05345441 205.3614594 -148.3125 209.0625 C-148.96354737 210.88066886 -149.63075435 212.69311772 -150.3125 214.5 C-150.621875 215.34433594 -150.93125 216.18867188 -151.25 217.05859375 C-152.3125 219.0625 -152.3125 219.0625 -155.3125 220.0625 C-155.3125 220.7225 -155.3125 221.3825 -155.3125 222.0625 C-156.3025 222.0625 -157.2925 222.0625 -158.3125 222.0625 C-158.30605469 222.87332031 -158.29960937 223.68414062 -158.29296875 224.51953125 C-158.63332595 230.03588656 -159.1542719 234.30372623 -163.234375 238.234375 C-165.49258683 240.17689183 -167.84689121 241.95892737 -170.24609375 243.72265625 C-172.86585197 245.72168195 -174.54877266 247.32524575 -176.3125 250.0625 C-174.6625 250.3925 -173.0125 250.7225 -171.3125 251.0625 C-171.3125 251.3925 -171.3125 251.7225 -171.3125 252.0625 C-173.9525 252.0625 -176.5925 252.0625 -179.3125 252.0625 C-172.07341102 231.20561659 -172.07341102 231.20561659 -166.16796875 222.7890625 C-164.97695362 220.89490941 -164.97695362 220.89490941 -166.3125 218.0625 C-167.3025 219.0525 -167.3025 219.0525 -168.3125 220.0625 C-169.67911647 215.55266565 -168.91255266 212.44159149 -167.3125 208.0625 C-166.6525 207.7325 -165.9925 207.4025 -165.3125 207.0625 C-165.3125 208.3825 -165.3125 209.7025 -165.3125 211.0625 C-162.67693095 209.74471547 -160.58980447 207.92030102 -158.3125 206.0625 C-158.539375 205.505625 -158.76625 204.94875 -159 204.375 C-159.44160669 201.10711048 -158.12298988 199.74470723 -156.3125 197.0625 C-155.63153578 195.73641178 -154.95919414 194.40563399 -154.3125 193.0625 C-153.6525 193.0625 -152.9925 193.0625 -152.3125 193.0625 C-151.3225 190.4225 -150.3325 187.7825 -149.3125 185.0625 C-149.9725 184.7325 -150.6325 184.4025 -151.3125 184.0625 C-149.9925 183.7325 -148.6725 183.4025 -147.3125 183.0625 C-147.8075 182.0725 -147.8075 182.0725 -148.3125 181.0625 C-147.3225 180.7325 -146.3325 180.4025 -145.3125 180.0625 C-144.03254067 178.10402523 -144.03254067 178.10402523 -142.96484375 175.63671875 C-142.52986572 174.70520996 -142.0948877 173.77370117 -141.64672852 172.81396484 C-141.18580811 171.80285645 -140.7248877 170.79174805 -140.25 169.75 C-139.25910694 167.63090465 -138.26689588 165.51242515 -137.2734375 163.39453125 C-136.77553711 162.3267041 -136.27763672 161.25887695 -135.76464844 160.15869141 C-128.67237891 145.03694256 -120.80368898 130.44166492 -112.3125 116.0625 C-111.76045898 115.12470703 -111.20841797 114.18691406 -110.63964844 113.22070312 C-100.52153532 96.10485444 -89.63454753 79.6761326 -77.3125 64.0625 C-81.61868331 68.09855373 -85.01613287 72.51393996 -88.4375 77.3125 C-89.00662109 78.1075293 -89.57574219 78.90255859 -90.16210938 79.72167969 C-109.55871072 107.02180142 -125.75697743 136.47517638 -140.53149414 166.48583984 C-140.99934326 167.43539551 -141.46719238 168.38495117 -141.94921875 169.36328125 C-142.35873779 170.20028564 -142.76825684 171.03729004 -143.19018555 171.8996582 C-144.3125 174.0625 -144.3125 174.0625 -146.3125 177.0625 C-146.993125 176.134375 -146.993125 176.134375 -147.6875 175.1875 C-150.16169008 171.95202067 -150.77068743 171.15591596 -154.9375 170.4375 C-156.608125 170.251875 -156.608125 170.251875 -158.3125 170.0625 C-156.3325 168.0825 -156.3325 168.0825 -154.3125 166.0625 C-157.31867269 163.05632731 -160.13631598 163.46664684 -164.3125 163.0625 C-160.95922361 160.82698241 -160.40506343 160.88966472 -156.625 161.4375 C-155.81675781 161.54835937 -155.00851563 161.65921875 -154.17578125 161.7734375 C-153.56089844 161.86882812 -152.94601563 161.96421875 -152.3125 162.0625 C-153.488125 160.9178125 -153.488125 160.9178125 -154.6875 159.75 C-157.3125 157.0625 -157.3125 157.0625 -159.3125 154.0625 C-157.9925 154.7225 -156.6725 155.3825 -155.3125 156.0625 C-154.17450288 152.54505435 -154.17322427 151.35265776 -155.8125 147.9375 C-156.3075 146.98875 -156.8025 146.04 -157.3125 145.0625 C-156.9825 144.0725 -156.6525 143.0825 -156.3125 142.0625 C-154.0025 144.7025 -151.6925 147.3425 -149.3125 150.0625 C-149.6425 149.0725 -149.9725 148.0825 -150.3125 147.0625 C-149.9825 146.4025 -149.6525 145.7425 -149.3125 145.0625 C-150.08451318 143.48923072 -150.93093509 141.95210354 -151.8125 140.4375 C-154.48745464 135.36761351 -154.63997318 132.57661936 -153.3125 127.0625 C-152.9825 127.0625 -152.6525 127.0625 -152.3125 127.0625 C-152.24933594 127.6915625 -152.18617188 128.320625 -152.12109375 128.96875 C-151.09188365 136.16238691 -148.52132149 140.07651579 -143.3125 145.0625 C-143.62574219 144.38703125 -143.93898437 143.7115625 -144.26171875 143.015625 C-147.43112061 134.10830973 -147.0707031 124.63120307 -143.3125 116.0625 C-142.3225 117.5475 -142.3225 117.5475 -141.3125 119.0625 C-141.21453125 118.39863281 -141.1165625 117.73476562 -141.015625 117.05078125 C-140.86609375 116.16777344 -140.7165625 115.28476563 -140.5625 114.375 C-140.42328125 113.50488281 -140.2840625 112.63476562 -140.140625 111.73828125 C-139.3125 109.0625 -139.3125 109.0625 -135.3125 104.0625 C-134.3225 108.3525 -133.3325 112.6425 -132.3125 117.0625 C-132.33570313 116.02609375 -132.35890625 114.9896875 -132.3828125 113.921875 C-132.40157667 112.55209056 -132.41977618 111.1822983 -132.4375 109.8125 C-132.45425781 109.13058594 -132.47101563 108.44867188 -132.48828125 107.74609375 C-132.52519994 103.94346891 -132.32348049 101.30440094 -130.3125 98.0625 C-129.74718897 96.70950441 -129.18483991 95.35526857 -128.625 94 C-126.13637345 88.36537386 -123.03889138 82.97289258 -119.3125 78.0625 C-118.6525 78.0625 -117.9925 78.0625 -117.3125 78.0625 C-115.9925 75.0925 -114.6725 72.1225 -113.3125 69.0625 C-112.3125 72.0625 -112.3125 72.0625 -112.3125 73.0625 C-110.9925 70.0925 -109.6725 67.1225 -108.3125 64.0625 C-107.6525 64.3925 -106.9925 64.7225 -106.3125 65.0625 C-106.00957031 64.43601562 -105.70664063 63.80953125 -105.39453125 63.1640625 C-101.60956514 55.78046707 -101.60956514 55.78046707 -96.3125 54.0625 C-96.02375 53.32 -95.735 52.5775 -95.4375 51.8125 C-93.99913985 48.29650852 -91.91135992 46.79889443 -88.96875 44.4921875 C-87.0598865 42.97325059 -87.0598865 42.97325059 -85.3125 40.0625 C-84.6525 40.3925 -83.9925 40.7225 -83.3125 41.0625 C-82.3225 40.7325 -81.3325 40.4025 -80.3125 40.0625 C-79.94125 38.94875 -79.94125 38.94875 -79.5625 37.8125 C-77.81466588 33.96726495 -74.9625324 32.08551324 -71.3125 30.0625 C-70.6525 30.0625 -69.9925 30.0625 -69.3125 30.0625 C-67.64614098 28.65161066 -66.02788838 27.18350331 -64.4375 25.6875 C-61.49201651 22.91786627 -58.98875363 20.72897295 -55.3125 19.0625 C-53.55967607 18.00466518 -51.81002046 16.94157324 -50.0625 15.875 C-37.72333769 8.68713846 -25.27711298 4.02420811 -11.3125 1.0625 C-10.466875 0.86527344 -9.62125 0.66804688 -8.75 0.46484375 C-5.80042265 -0.02202559 -2.987786 -0.03283281 0 0 Z " fill="#111111" transform="translate(202.3125,15.9375)"/>
<path d="M0 0 C0 0.99 0 1.98 0 3 C-0.66 3.66 -1.32 4.32 -2 5 C-2.68177998 7.65719837 -2.68177998 7.65719837 -3.125 10.625 C-3.29257813 11.62789062 -3.46015625 12.63078125 -3.6328125 13.6640625 C-3.81457031 14.82035156 -3.81457031 14.82035156 -4 16 C-3.01 13.69 -2.02 11.38 -1 9 C-0.505 10.485 -0.505 10.485 0 12 C0.66 11.34 1.32 10.68 2 10 C2 11.32 2 12.64 2 14 C4.0162233 13.28436734 4.0162233 13.28436734 6 12 C6.80528889 9.94999129 6.80528889 9.94999129 7 8 C7.99 8.33 8.98 8.66 10 9 C10 9.66 10 10.32 10 11 C12.31 9.02 14.62 7.04 17 5 C17.99 5.495 17.99 5.495 19 6 C15.66267542 9.42618825 12.34408266 12.79751551 8.625 15.8125 C5.9683878 17.7292087 5.9683878 17.7292087 5 20 C4.34 20 3.68 20 3 20 C3.495 21.485 3.495 21.485 4 23 C3.278125 23.37125 2.55625 23.7425 1.8125 24.125 C-2.2200624 26.81337494 -5.54320068 29.81751436 -6.5625 34.6875 C-6.706875 35.450625 -6.85125 36.21375 -7 37 C-9.0625 38.8125 -9.0625 38.8125 -11 40 C-11 39.01 -11 38.02 -11 37 C-15.58466296 41.23331495 -19.02374833 46.00220287 -22.5625 51.125 C-23.48059448 52.44745728 -23.48059448 52.44745728 -24.41723633 53.79663086 C-42.89295617 80.60327288 -58.797146 109.13187314 -73.16772461 138.32104492 C-73.87747437 139.76120972 -73.87747437 139.76120972 -74.6015625 141.23046875 C-75.01744629 142.08020264 -75.43333008 142.92993652 -75.86181641 143.80541992 C-77 146 -77 146 -79 149 C-79.680625 148.071875 -79.680625 148.071875 -80.375 147.125 C-82.84919008 143.88952067 -83.45818743 143.09341596 -87.625 142.375 C-89.295625 142.189375 -89.295625 142.189375 -91 142 C-89.02 140.02 -89.02 140.02 -87 138 C-90.00617269 134.99382731 -92.82381598 135.40414684 -97 135 C-93.64672361 132.76448241 -93.09256343 132.82716472 -89.3125 133.375 C-88.50425781 133.48585937 -87.69601563 133.59671875 -86.86328125 133.7109375 C-85.94095703 133.85402344 -85.94095703 133.85402344 -85 134 C-85.78375 133.236875 -86.5675 132.47375 -87.375 131.6875 C-90 129 -90 129 -92 126 C-90.68 126.66 -89.36 127.32 -88 128 C-86.86200288 124.48255435 -86.86072427 123.29015776 -88.5 119.875 C-88.995 118.92625 -89.49 117.9775 -90 117 C-89.67 116.01 -89.34 115.02 -89 114 C-86.69 116.64 -84.38 119.28 -82 122 C-82.33 121.01 -82.66 120.02 -83 119 C-82.505 118.01 -82.505 118.01 -82 117 C-82.77201318 115.42673072 -83.61843509 113.88960354 -84.5 112.375 C-87.17495464 107.30511351 -87.32747318 104.51411936 -86 99 C-85.67 99 -85.34 99 -85 99 C-84.93683594 99.6290625 -84.87367187 100.258125 -84.80859375 100.90625 C-83.77938365 108.09988691 -81.20882149 112.01401579 -76 117 C-76.31324219 116.32453125 -76.62648438 115.6490625 -76.94921875 114.953125 C-80.11862061 106.04580973 -79.7582031 96.56870307 -76 88 C-75.34 88.99 -74.68 89.98 -74 91 C-73.90203125 90.33613281 -73.8040625 89.67226562 -73.703125 88.98828125 C-73.55359375 88.10527344 -73.4040625 87.22226563 -73.25 86.3125 C-73.11078125 85.44238281 -72.9715625 84.57226562 -72.828125 83.67578125 C-72 81 -72 81 -68 76 C-67.01 80.29 -66.02 84.58 -65 89 C-65.02320312 87.96359375 -65.04640625 86.9271875 -65.0703125 85.859375 C-65.08907667 84.48959056 -65.10727618 83.1197983 -65.125 81.75 C-65.14175781 81.06808594 -65.15851563 80.38617188 -65.17578125 79.68359375 C-65.21269994 75.88096891 -65.01098049 73.24190094 -63 70 C-62.43468897 68.64700441 -61.87233991 67.29276857 -61.3125 65.9375 C-58.82387345 60.30287386 -55.72639138 54.91039258 -52 50 C-51.34 50 -50.68 50 -50 50 C-48.68 47.03 -47.36 44.06 -46 41 C-45 44 -45 44 -45 45 C-43.68 42.03 -42.36 39.06 -41 36 C-40.01 36.495 -40.01 36.495 -39 37 C-38.69707031 36.37351563 -38.39414063 35.74703125 -38.08203125 35.1015625 C-34.29706514 27.71796707 -34.29706514 27.71796707 -29 26 C-28.71125 25.2575 -28.4225 24.515 -28.125 23.75 C-26.68663985 20.23400852 -24.59885992 18.73639443 -21.65625 16.4296875 C-19.7473865 14.91075059 -19.7473865 14.91075059 -18 12 C-17.01 12.495 -17.01 12.495 -16 13 C-15.01 12.67 -14.02 12.34 -13 12 C-12.62875 10.88625 -12.62875 10.88625 -12.25 9.75 C-10.50216588 5.90476495 -7.6500324 4.02301324 -4 2 C-3.34 2 -2.68 2 -2 2 C-1.34 1.34 -0.68 0.68 0 0 Z " fill="#2E2E31" transform="translate(135,44)"/>
<path d="M0 0 C0.99 0.33 1.98 0.66 3 1 C2.64397705 1.52094238 2.2879541 2.04188477 1.92114258 2.57861328 C-7.27414059 16.08110649 -15.8897352 29.81982245 -24 44 C-24.4429541 44.77408203 -24.8859082 45.54816406 -25.34228516 46.34570312 C-36.47724552 65.90353592 -47.8632628 85.97338209 -56 107 C-55.01 107.33 -54.02 107.66 -53 108 C-52.443125 107.690625 -51.88625 107.38125 -51.3125 107.0625 C-47.84504879 105.46934674 -44.7944776 105.87351741 -41 106 C-42.95216435 104.04783565 -44.53199953 103.15173355 -47 102 C-45.625 100.5 -45.625 100.5 -44 99 C-43.34 99 -42.68 99 -42 99 C-42.33 98.01 -42.66 97.02 -43 96 C-35.7109102 94.08681157 -29.45067301 93.95180646 -22 95 C-22 95.33 -22 95.66 -22 96 C-24.64 96.33 -27.28 96.66 -30 97 C-30 97.33 -30 97.66 -30 98 C-32.97 98.495 -32.97 98.495 -36 99 C-30.97350697 100.57077907 -26.23880078 101.44854729 -21 102 C-21 102.33 -21 102.66 -21 103 C-22.44632813 102.98259766 -22.44632813 102.98259766 -23.921875 102.96484375 C-25.18515625 102.95582031 -26.4484375 102.94679688 -27.75 102.9375 C-29.62945312 102.92009766 -29.62945312 102.92009766 -31.546875 102.90234375 C-34.28536501 102.97978973 -36.41880293 103.17219185 -39 104 C-38.484375 104.78375 -37.96875 105.5675 -37.4375 106.375 C-36.963125 107.24125 -36.48875 108.1075 -36 109 C-36.33 109.66 -36.66 110.32 -37 111 C-37.99 110.505 -37.99 110.505 -39 110 C-39.33 110.66 -39.66 111.32 -40 112 C-41.65 111.01 -43.3 110.02 -45 109 C-45 109.66 -45 110.32 -45 111 C-45.99 111.495 -45.99 111.495 -47 112 C-47.495 113.485 -47.495 113.485 -48 115 C-48.66 113.68 -49.32 112.36 -50 111 C-50.99 111 -51.98 111 -53 111 C-53.66 111 -54.32 111 -55 111 C-54.814375 112.423125 -54.814375 112.423125 -54.625 113.875 C-54.59644455 118.58664906 -57.00022775 121.67629039 -59.48046875 125.52734375 C-61.53751135 128.87466499 -62.74095441 132.2989594 -64 136 C-64.65104737 137.81816886 -65.31825435 139.63061772 -66 141.4375 C-66.309375 142.28183594 -66.61875 143.12617188 -66.9375 143.99609375 C-68 146 -68 146 -71 147 C-71 147.66 -71 148.32 -71 149 C-71.99 149 -72.98 149 -74 149 C-73.99355469 149.81082031 -73.98710938 150.62164062 -73.98046875 151.45703125 C-74.32082595 156.97338656 -74.8417719 161.24122623 -78.921875 165.171875 C-81.18008683 167.11439183 -83.53439121 168.89642737 -85.93359375 170.66015625 C-88.55335197 172.65918195 -90.23627266 174.26274575 -92 177 C-90.35 177.33 -88.7 177.66 -87 178 C-87 178.33 -87 178.66 -87 179 C-89.64 179 -92.28 179 -95 179 C-87.76091102 158.14311659 -87.76091102 158.14311659 -81.85546875 149.7265625 C-80.66445362 147.83240941 -80.66445362 147.83240941 -82 145 C-82.99 145.99 -82.99 145.99 -84 147 C-85.36661647 142.49016565 -84.60005266 139.37909149 -83 135 C-82.34 134.67 -81.68 134.34 -81 134 C-81 135.32 -81 136.64 -81 138 C-78.36443095 136.68221547 -76.27730447 134.85780102 -74 133 C-74.226875 132.443125 -74.45375 131.88625 -74.6875 131.3125 C-75.12910669 128.04461048 -73.81048988 126.68220723 -72 124 C-71.31903578 122.67391178 -70.64669414 121.34313399 -70 120 C-69.34 120 -68.68 120 -68 120 C-67.01 117.36 -66.02 114.72 -65 112 C-65.66 111.67 -66.32 111.34 -67 111 C-65.02 110.505 -65.02 110.505 -63 110 C-63.495 109.01 -63.495 109.01 -64 108 C-62.515 107.505 -62.515 107.505 -61 107 C-59.72004067 105.04152523 -59.72004067 105.04152523 -58.65234375 102.57421875 C-58.21736572 101.64270996 -57.7823877 100.71120117 -57.33422852 99.75146484 C-56.87330811 98.74035645 -56.4123877 97.72924805 -55.9375 96.6875 C-54.94660694 94.56840465 -53.95439588 92.44992515 -52.9609375 90.33203125 C-52.46303711 89.2642041 -51.96513672 88.19637695 -51.45214844 87.09619141 C-44.35987891 71.97444256 -36.49118898 57.37916492 -28 43 C-27.44795898 42.06220703 -26.89591797 41.12441406 -26.32714844 40.15820312 C-18.15069576 26.32687655 -9.41077228 13.02248576 0 0 Z " fill="#313131" transform="translate(118,89)"/>
<path d="M0 0 C0.99 0.495 0.99 0.495 2 1 C-5.73917598 11.79259777 -5.73917598 11.79259777 -8.8125 15.375 C-11.01806972 17.88494848 -11.01806972 17.88494848 -12.5 20.5 C-14.36595881 23.60993135 -16.68016465 26.21619758 -19 29 C-19.433125 29.804375 -19.86625 30.60875 -20.3125 31.4375 C-26.8160866 41.31331668 -38.0920478 45.75923159 -49 49 C-47.72125 48.814375 -46.4425 48.62875 -45.125 48.4375 C-41.25 47.875 -41.25 47.875 -39 49 C-39 49.66 -39 50.32 -39 51 C-40.65 51.66 -42.3 52.32 -44 53 C-44 53.66 -44 54.32 -44 55 C-45.175625 55.185625 -45.175625 55.185625 -46.375 55.375 C-49.14057822 55.79117993 -49.14057822 55.79117993 -51 58 C-51 58.99 -51 59.98 -51 61 C-51.33 61.66 -51.66 62.32 -52 63 C-52.66 63 -53.32 63 -54 63 C-54.33 64.32 -54.66 65.64 -55 67 C-53.515 67.495 -53.515 67.495 -52 68 C-53.98 68.99 -53.98 68.99 -56 70 C-56 70.66 -56 71.32 -56 72 C-53.36 71.67 -50.72 71.34 -48 71 C-50.51632049 73.85984547 -53.33885553 75.41468822 -56.6875 77.1875 C-57.68136719 77.71730469 -58.67523438 78.24710937 -59.69921875 78.79296875 C-60.45847656 79.19128906 -61.21773437 79.58960938 -62 80 C-60.35 80.33 -58.7 80.66 -57 81 C-59.55573961 84.0171926 -62.38380793 85.2432533 -66 86.75 C-67.5778125 87.42289063 -67.5778125 87.42289063 -69.1875 88.109375 C-72 89 -72 89 -75 88 C-75 87.34 -75 86.68 -75 86 C-71.62902617 84.50178941 -69.79557881 84 -66 84 C-66 83.34 -66 82.68 -66 82 C-68.31 81.67 -70.62 81.34 -73 81 C-73 81.66 -73 82.32 -73 83 C-73.66 83 -74.32 83 -75 83 C-76.125 79.25 -76.125 79.25 -75 77 C-74.34 77 -73.68 77 -73 77 C-73.33 75.68 -73.66 74.36 -74 73 C-72.75264433 72.3490741 -71.50198168 71.70448331 -70.25 71.0625 C-69.20585938 70.52302734 -69.20585938 70.52302734 -68.140625 69.97265625 C-66.09775567 69.04441818 -64.18884624 68.46833422 -62 68 C-63.4540625 67.814375 -63.4540625 67.814375 -64.9375 67.625 C-65.948125 67.41875 -66.95875 67.2125 -68 67 C-68.33 66.34 -68.66 65.68 -69 65 C-67.68 65 -66.36 65 -65 65 C-64.67 64.34 -64.34 63.68 -64 63 C-63.34 62.690625 -62.68 62.38125 -62 62.0625 C-59.65391779 61.1108154 -59.65391779 61.1108154 -59 58 C-61.64 58.33 -64.28 58.66 -67 59 C-66.175 58.21625 -65.35 57.4325 -64.5 56.625 C-61.77011494 54.36278736 -61.77011494 54.36278736 -62 52 C-60.515 51.505 -60.515 51.505 -59 51 C-59.66 50.67 -60.32 50.34 -61 50 C-60.2884375 49.4121875 -60.2884375 49.4121875 -59.5625 48.8125 C-57.79255905 47.0724834 -57.79255905 47.0724834 -57.5625 44.5 C-57 42 -57 42 -54.9375 40.1875 C-54.298125 39.795625 -53.65875 39.40375 -53 39 C-53.66 38.34 -54.32 37.68 -55 37 C-53.6875 35.5 -53.6875 35.5 -52 34 C-51.01 34 -50.02 34 -49 34 C-49.33 33.01 -49.66 32.02 -50 31 C-48.73308493 30.32591692 -47.46129251 29.66099503 -46.1875 29 C-45.47980469 28.62875 -44.77210938 28.2575 -44.04296875 27.875 C-42 27 -42 27 -39 27 C-39 26.01 -39 25.02 -39 24 C-39 23 -39 22 -39 21 C-38.34 21 -37.68 21 -37 21 C-36.79375 20.21625 -36.5875 19.4325 -36.375 18.625 C-35 16 -35 16 -31.875 14.6875 C-30.92625 14.460625 -29.9775 14.23375 -29 14 C-29.99 13.34 -30.98 12.68 -32 12 C-31.34 11.34 -30.68 10.68 -30 10 C-29.01 10 -28.02 10 -27 10 C-27 9.34 -27 8.68 -27 8 C-20.565 7.505 -20.565 7.505 -14 7 C-14 6.34 -14 5.68 -14 5 C-13.07316406 4.72285156 -12.14632812 4.44570312 -11.19140625 4.16015625 C-9.99386719 3.79792969 -8.79632813 3.43570313 -7.5625 3.0625 C-6.36753906 2.70285156 -5.17257813 2.34320313 -3.94140625 1.97265625 C-1.14132455 1.29110858 -1.14132455 1.29110858 0 0 Z " fill="#4B4B4D" transform="translate(179,62)"/>
<path d="M0 0 C0.66 0.33 1.32 0.66 2 1 C1.65 1.683046875 1.65 1.683046875 0 3.0625 C-2.34 5.0425 -4.98 7.0225 -7.3125 9.0625 C-7.3125 9.7225 -7.3125 10.3825 -7.3125 11.0625 C-8.075625 11.26875 -8.83875 11.475 -9.625 11.6875 C-13.13479103 13.48320704 -13.83849781 15.49386312 -15.3125 19.0625 C-16.3025 19.0625 -17.2925 19.0625 -18.3125 19.0625 C-17.98249813 19.72251687 -17.652496 20.382533746 -17.3125 21.0625 C-21.9375 23.1875 -21.9375 23.1875 -25.3125 22.0625 C-25.6425 23.0525 -25.9725 24.0425 -26.3125 25.0625 C-27.9625 24.7325 -29.6125 24.4025 -31.3125 24.0625 C-31.3125 23.4025 -31.3125 22.7425 -31.3125 22.0625 C-30.6525 21.7325 -29.9925 21.4025 -29.3125 21.0625 C-29.6425 20.4025 -29.9725 19.7425 -30.3125 19.0625 C-28.6625 18.7325 -27.0125 18.4025 -25.3125 18.0625 C-25.3125 17.0725 -25.3125 16.0825 -25.3125 15.0625 C-25.3125 14.0725 -25.3125 13.0825 -25.3125 12.0625 C-24.6525 12.0625 -23.9925 12.0625 -23.3125 12.0625 C-23.105625 11.279375 -22.89875 10.49625 -22.6875 9.6875 C-21.3125 7.0625 -21.3125 7.0625 -18.1875 5.75 C-16.764375 5.4096875 -16.764375 5.4096875 -15.3125 5.0625 C-16.3025 4.4025 -17.2925 3.7425 -18.3125 3.0625 C-17.6525 2.4025 -16.9925 1.7425 -16.3125 1.0625 C-15.3225 1.0625 -14.3325 1.0625 -13.3125 1.0625 C-13.3125 0.4025 -13.3125 -0.2575 -13.3125 -0.9375 C-6.8775 -1.4325 -6.8775 -1.4325 -0.3125 -1.9375 C-0.3125 -2.5975 -0.3125 -3.2575 -0.3125 -3.9375 C0.61433594 -4.21464844 1.54117188 -4.49179688 2.49609375 -4.77734375 C3.69363281 -5.13957031 4.89117188 -5.50179688 6.125 -5.875 C7.31996094 -6.23464844 8.51492188 -6.59429688 9.74609375 -6.96484375 C12.54617545 -7.64639142 12.54617545 -7.64639142 13.6875 -8.9375 C13.6875 -7.9475 13.6875 -6.9575 13.6875 -5.9375 C12.42723202 -3.41696405 12.76875555 -2.0832902 13.125 0.6875 C13.22683594 1.50476563 13.32867188 2.32203125 13.43359375 3.1640625 C13.51738281 3.79054688 13.60117188 4.41703125 13.6875 5.0625 C12.69749999 5.39249999 11.7075 5.7224998 10.6875 6.0625 C10.6875 6.7225 10.6875 7.3825 10.6875 8.0625 C9.4275 8.7225 8.1675 9.3825 6.6875 10.0625 C5.94527588 10.05074463 5.94527588 10.05074463 5.1875 10.0390625 C4.18424805 10.02713867 4.18424805 10.02713867 3.16015625 10.01513672 C2.46862061 10.00405151 2.46862061 10.00405151 1.76318359 9.99267578 C0.62755713 9.97615479 0.62755713 9.97615479 -0.53125 9.95898438 C-3.26974001 9.88153839 -5.40317793 9.68913628 -7.984375 8.86132812 C-7.46875 8.07757812 -6.953125 7.29382812 -6.421875 6.4863281 C-5.94750000 5.62007813 -5.473125 4.7538281 -4.984375 3.8613281 C-5.314375 3.2013281 -5.644375 2.5413281 -5.984375 1.8613281 C-6.644375 2.1913281 -7.304375 2.5213281 -7.984375 2.8613281 C-8.314375 2.2013281 -8.644375 1.5413281 -8.984375 0.8613281 C-7.334375 0.5313281 -5.684375 0.2013281 -3.984375 -0.13867188 C-2.984375 -0.13867188 -1.984375 -0.13867188 -0.984375 -0.13867188 C-0.654375 -0.46867188 -0.324375 -0.79867188 0 -1.1386719 C0 -0.7586719 0 -0.3786719 0 0 Z " fill="#4B4B4D" transform="translate(122,138)"/>
</svg>
