<?xml version="1.0" encoding="UTF-8"?>
<svg version="1.1" xmlns="http://www.w3.org/2000/svg" width="512" height="288" viewBox="0 0 512 288">
<path d="M0 0 C168.96 0 337.92 0 512 0 C512 95.04 512 190.08 512 288 C343.04 288 174.08 288 0 288 C0 192.96 0 97.92 0 0 Z " fill="#FDFCFD" transform="translate(0,0)"/>
<path d="M0 0 C1.60294922 0.01353516 1.60294922 0.01353516 3.23828125 0.02734375 C4.04652344 0.03894531 4.85476562 0.05054688 5.6875 0.0625 C6.1415821 6.5331699 5.34038056 9.69061682 1.6875 15.0625 C1.0275 15.7225 0.3675 16.3825 -0.3125 17.0625 C-0.60769531 17.82949219 -0.90289062 18.59648438 -1.20703125 19.38671875 C-3.22646867 24.27475633 -6.94521173 28.03773026 -10.3125 32.0625 C-10.89515625 32.79339844 -11.4778125 33.52429687 -12.078125 34.27734375 C-19.50885285 43.32269237 -28.40550001 47.25263602 -39.3125 51.0625 C-37.24886888 50.60928672 -35.18663493 50.14970894 -33.125 49.6875 C-31.97644531 49.43226562 -30.82789063 49.17703125 -29.64453125 48.9140625 C-26.72442652 48.16777548 -24.07296611 47.25818212 -21.3125 46.0625 C-24.88795536 51.91228347 -28.45037954 57.48050075 -33.04296875 62.58203125 C-34.7549843 64.57850477 -35.9786767 66.80079961 -37.3125 69.0625 C-38.97916667 71.0625 -40.64583333 73.0625 -42.3125 75.0625 C-42.745625 75.866875 -43.17875 76.67125 -43.625 77.5 C-50.1285866 87.37581668 -61.4045478 91.82173159 -72.3125 95.0625 C-62.04044382 92.88988356 -62.04044382 92.88988356 -52.3125 89.0625 C-53.76708784 93.18383221 -55.85966331 96.45989611 -58.3125 100.0625 C-58.99518138 101.38770503 -59.6632041 102.72062182 -60.3125 104.0625 C-61.8467421 106.8520311 -63.20811922 108.96110153 -65.5 111.1875 C-67.66001105 112.98735573 -67.66001105 112.98735573 -67.3125 116.0625 C-73.76610585 126.93670767 -83.18806691 133.50028346 -94.3125 139.0625 C-93.48105469 138.7015625 -92.64960937 138.340625 -91.79296875 137.96875 C-90.70628906 137.5046875 -89.61960937 137.040625 -88.5 136.5625 C-87.42105469 136.0984375 -86.34210938 135.634375 -85.23046875 135.15625 C-82.3125 134.0625 -82.3125 134.0625 -79.3125 134.0625 C-81.9525 136.0425 -84.5925 138.0225 -87.3125 140.0625 C-86.6525 140.0625 -85.9925 140.0625 -85.3125 140.0625 C-84.3225 140.3925 -83.3325 140.7225 -82.3125 141.0625 C-98.62159091 152.17159091 -98.62159091 152.17159091 -106.3125 155.0625 C-103.68684172 156.37532914 -102.61413271 155.79019681 -99.8125 155.0625 C-95.53472222 153.95138889 -95.53472222 153.95138889 -93.3125 155.0625 C-98.48080006 158.2514511 -103.49988629 160.32267005 -109.3125 162.0625 C-109.3125 162.3925 -109.3125 162.7225 -109.3125 163.0625 C-104.84410785 163.27528058 -101.48987474 162.65388085 -97.3125 161.0625 C-100.03728774 164.42841427 -103.38106792 165.50476276 -107.3125 167.0625 C-106.9825 167.7225 -106.6525 168.3825 -106.3125 169.0625 C-108.9525 169.3925 -111.5925 169.7225 -114.3125 170.0625 C-114.3125 170.3925 -114.3125 170.7225 -114.3125 171.0625 C-116.2925 171.3925 -118.2725 171.7225 -120.3125 172.0625 C-115.28600697 173.63327907 -110.55130078 174.51104729 -105.3125 175.0625 C-105.3125 175.3925 -105.3125 175.7225 -105.3125 176.0625 C-106.27671875 176.05089844 -107.2409375 176.03929687 -108.234375 176.02734375 C-109.49765625 176.01832031 -110.7609375 176.00929687 -112.0625 176 C-113.94195312 175.98259766 -113.94195312 175.98259766 -115.859375 175.96484375 C-118.59786501 176.04228973 -120.73130293 176.23469185 -123.3125 177.0625 C-122.796875 177.84625 -122.28125 178.63 -121.75 179.4375 C-121.275625 180.30375 -120.80125 181.17 -120.3125 182.0625 C-120.6425 182.7225 -120.9725 183.3825 -121.3125 184.0625 C-121.9725 183.7325 -122.6325 183.4025 -123.3125 183.0625 C-123.6425 183.7225 -123.9725 184.3825 -124.3125 185.0625 C-125.9625 184.0725 -127.6125 183.0825 -129.3125 182.0625 C-129.3125 182.7225 -129.3125 183.3825 -129.3125 184.0625 C-129.9725 184.3925 -130.6325 184.7225 -131.3125 185.0625 C-131.6425 186.0525 -131.9725 187.0425 -132.3125 188.0625 C-133.3025 186.0825 -133.3025 186.0825 -134.3125 184.0625 C-135.3025 184.0625 -136.2925 184.0625 -137.3125 184.0625 C-137.9725 184.0625 -138.6325 184.0625 -139.3125 184.0625 C-139.18875 185.01125 -139.065 185.96 -138.9375 186.9375 C-138.90894455 191.64914906 -141.31272775 194.73879039 -143.79296875 198.58984375 C-145.85001135 201.93716499 -147.05345441 205.3614594 -148.3125 209.0625 C-148.96354737 210.88066886 -149.63075435 212.69311772 -150.3125 214.5 C-150.621875 215.34433594 -150.93125 216.18867188 -151.25 217.05859375 C-152.3125 219.0625 -152.3125 219.0625 -155.3125 220.0625 C-155.3125 220.7225 -155.3125 221.3825 -155.3125 222.0625 C-156.3025 222.0625 -157.2925 222.0625 -158.3125 222.0625 C-158.30605469 222.87332031 -158.29960937 223.68414062 -158.29296875 224.51953125 C-158.63332595 230.03588656 -159.1542719 234.30372623 -163.234375 238.234375 C-165.49258683 240.17689183 -167.84689121 241.95892737 -170.24609375 243.72265625 C-172.86585197 245.72168195 -174.54877266 247.32524575 -176.3125 250.0625 C-174.6625 250.3925 -173.0125 250.7225 -171.3125 251.0625 C-171.3125 251.3925 -171.3125 251.7225 -171.3125 252.0625 C-173.9525 252.0625 -176.5925 252.0625 -179.3125 252.0625 C-172.07341102 231.20561659 -172.07341102 231.20561659 -166.16796875 222.7890625 C-164.97695362 220.89490941 -164.97695362 220.89490941 -166.3125 218.0625 C-167.3025 219.0525 -167.3025 219.0525 -168.3125 220.0625 C-169.67911647 215.55266565 -168.91255266 212.44159149 -167.3125 208.0625 C-166.6525 207.7325 -165.9925 207.4025 -165.3125 207.0625 C-165.3125 208.3825 -165.3125 209.7025 -165.3125 211.0625 C-162.67693095 209.74471547 -160.58980447 207.92030102 -158.3125 206.0625 C-158.539375 205.505625 -158.76625 204.94875 -159 204.375 C-159.44160669 201.10711048 -158.12298988 199.74470723 -156.3125 197.0625 C-155.63153578 195.73641178 -154.95919414 194.40563399 -154.3125 193.0625 C-153.6525 193.0625 -152.9925 193.0625 -152.3125 193.0625 C-151.3225 190.4225 -150.3325 187.7825 -149.3125 185.0625 C-149.9725 184.7325 -150.6325 184.4025 -151.3125 184.0625 C-149.9925 183.7325 -148.6725 183.4025 -147.3125 183.0625 C-147.8075 182.0725 -147.8075 182.0725 -148.3125 181.0625 C-147.3225 180.7325 -146.3325 180.4025 -145.3125 180.0625 C-144.03254067 178.10402523 -144.03254067 178.10402523 -142.96484375 175.63671875 C-142.52986572 174.70520996 -142.0948877 173.77370117 -141.64672852 172.81396484 C-141.18580811 171.80285645 -140.7248877 170.79174805 -140.25 169.75 C-139.25910694 167.63090465 -138.26689588 165.51242515 -137.2734375 163.39453125 C-136.77553711 162.3267041 -136.27763672 161.25887695 -135.76464844 160.15869141 C-128.67237891 145.03694256 -120.80368898 130.44166492 -112.3125 116.0625 C-111.76045898 115.12470703 -111.20841797 114.18691406 -110.63964844 113.22070312 C-100.52153532 96.10485444 -89.63454753 79.6761326 -77.3125 64.0625 C-81.61868331 68.09855373 -85.01613287 72.51393996 -88.4375 77.3125 C-89.00662109 78.1075293 -89.57574219 78.90255859 -90.16210938 79.72167969 C-109.55871072 107.02180142 -125.75697743 136.47517638 -140.53149414 166.48583984 C-140.99934326 167.43539551 -141.46719238 168.38495117 -141.94921875 169.36328125 C-142.35873779 170.20028564 -142.76825684 171.03729004 -143.19018555 171.8996582 C-144.3125 174.0625 -144.3125 174.0625 -146.3125 177.0625 C-146.993125 176.134375 -146.993125 176.134375 -147.6875 175.1875 C-150.16169008 171.95202067 -150.77068743 171.15591596 -154.9375 170.4375 C-156.608125 170.251875 -156.608125 170.251875 -158.3125 170.0625 C-156.3325 168.0825 -156.3325 168.0825 -154.3125 166.0625 C-157.31867269 163.05632731 -160.13631598 163.46664684 -164.3125 163.0625 C-160.95922361 160.82698241 -160.40506343 160.88966472 -156.625 161.4375 C-155.81675781 161.54835937 -155.00851563 161.65921875 -154.17578125 161.7734375 C-153.56089844 161.86882812 -152.94601563 161.96421875 -152.3125 162.0625 C-153.488125 160.9178125 -153.488125 160.9178125 -154.6875 159.75 C-157.3125 157.0625 -157.3125 157.0625 -159.3125 154.0625 C-157.9925 154.7225 -156.6725 155.3825 -155.3125 156.0625 C-154.17450288 152.54505435 -154.17322427 151.35265776 -155.8125 147.9375 C-156.3075 146.98875 -156.8025 146.04 -157.3125 145.0625 C-156.9825 144.0725 -156.6525 143.0825 -156.3125 142.0625 C-154.0025 144.7025 -151.6925 147.3425 -149.3125 150.0625 C-149.6425 149.0725 -149.9725 148.0825 -150.3125 147.0625 C-149.9825 146.4025 -149.6525 145.7425 -149.3125 145.0625 C-150.08451318 143.48923072 -150.93093509 141.95210354 -151.8125 140.4375 C-154.48745464 135.36761351 -154.63997318 132.57661936 -153.3125 127.0625 C-152.9825 127.0625 -152.6525 127.0625 -152.3125 127.0625 C-152.24933594 127.6915625 -152.18617188 128.320625 -152.12109375 128.96875 C-151.09188365 136.16238691 -148.52132149 140.07651579 -143.3125 145.0625 C-143.62574219 144.38703125 -143.93898437 143.7115625 -144.26171875 143.015625 C-147.43112061 134.10830973 -147.0707031 124.63120307 -143.3125 116.0625 C-142.3225 117.5475 -142.3225 117.5475 -141.3125 119.0625 C-141.21453125 118.39863281 -141.1165625 117.73476562 -141.015625 117.05078125 C-140.86609375 116.16777344 -140.7165625 115.28476563 -140.5625 114.375 C-140.42328125 113.50488281 -140.2840625 112.63476562 -140.140625 111.73828125 C-139.3125 109.0625 -139.3125 109.0625 -135.3125 104.0625 C-134.3225 108.3525 -133.3325 112.6425 -132.3125 117.0625 C-132.33570313 116.02609375 -132.35890625 114.9896875 -132.3828125 113.921875 C-132.40157667 112.55209056 -132.41977618 111.1822983 -132.4375 109.8125 C-132.45425781 109.13058594 -132.47101563 108.44867188 -132.48828125 107.74609375 C-132.52519994 103.94346891 -132.32348049 101.30440094 -130.3125 98.0625 C-129.74718897 96.70950441 -129.18483991 95.35526857 -128.625 94 C-126.13637345 88.36537386 -123.03889138 82.97289258 -119.3125 78.0625 C-118.6525 78.0625 -117.9925 78.0625 -117.3125 78.0625 C-115.9925 75.0925 -114.6725 72.1225 -113.3125 69.0625 C-112.3125 72.0625 -112.3125 72.0625 -112.3125 73.0625 C-110.9925 70.0925 -109.6725 67.1225 -108.3125 64.0625 C-107.6525 64.3925 -106.9925 64.7225 -106.3125 65.0625 C-106.00957031 64.43601562 -105.70664063 63.80953125 -105.39453125 63.1640625 C-101.60956514 55.78046707 -101.60956514 55.78046707 -96.3125 54.0625 C-96.02375 53.32 -95.735 52.5775 -95.4375 51.8125 C-93.99913985 48.29650852 -91.91135992 46.79889443 -88.96875 44.4921875 C-87.0598865 42.97325059 -87.0598865 42.97325059 -85.3125 40.0625 C-84.6525 40.3925 -83.9925 40.7225 -83.3125 41.0625 C-82.3225 40.7325 -81.3325 40.4025 -80.3125 40.0625 C-79.94125 38.94875 -79.94125 38.94875 -79.5625 37.8125 C-77.81466588 33.96726495 -74.9625324 32.08551324 -71.3125 30.0625 C-70.6525 30.0625 -69.9925 30.0625 -69.3125 30.0625 C-67.64614098 28.65161066 -66.02788838 27.18350331 -64.4375 25.6875 C-61.49201651 22.91786627 -58.98875363 20.72897295 -55.3125 19.0625 C-53.55967607 18.00466518 -51.81002046 16.94157324 -50.0625 15.875 C-37.72333769 8.68713846 -25.27711298 4.02420811 -11.3125 1.0625 C-10.466875 0.86527344 -9.62125 0.66804688 -8.75 0.46484375 C-5.80042265 -0.02202559 -2.987786 -0.03283281 0 0 Z " fill="#050506" transform="translate(202.3125,15.9375)"/>
<path d="M0 0 C0 0.99 0 1.98 0 3 C-0.66 3.66 -1.32 4.32 -2 5 C-2.68177998 7.65719837 -2.68177998 7.65719837 -3.125 10.625 C-3.29257813 11.62789062 -3.46015625 12.63078125 -3.6328125 13.6640625 C-3.81457031 14.82035156 -3.81457031 14.82035156 -4 16 C-3.01 13.69 -2.02 11.38 -1 9 C-0.505 10.485 -0.505 10.485 0 12 C0.66 11.34 1.32 10.68 2 10 C2 11.32 2 12.64 2 14 C4.0162233 13.28436734 4.0162233 13.28436734 6 12 C6.80528889 9.94999129 6.80528889 9.94999129 7 8 C7.99 8.33 8.98 8.66 10 9 C10 9.66 10 10.32 10 11 C12.31 9.02 14.62 7.04 17 5 C17.99 5.495 17.99 5.495 19 6 C15.66267542 9.42618825 12.34408266 12.79751551 8.625 15.8125 C5.9683878 17.7292087 5.9683878 17.7292087 5 20 C4.34 20 3.68 20 3 20 C3.495 21.485 3.495 21.485 4 23 C3.278125 23.37125 2.55625 23.7425 1.8125 24.125 C-2.2200624 26.81337494 -5.54320068 29.81751436 -6.5625 34.6875 C-6.706875 35.450625 -6.85125 36.21375 -7 37 C-9.0625 38.8125 -9.0625 38.8125 -11 40 C-11 39.01 -11 38.02 -11 37 C-15.58466296 41.23331495 -19.02374833 46.00220287 -22.5625 51.125 C-23.48059448 52.44745728 -23.48059448 52.44745728 -24.41723633 53.79663086 C-42.89295617 80.60327288 -58.797146 109.13187314 -73.16772461 138.32104492 C-73.87747437 139.76120972 -73.87747437 139.76120972 -74.6015625 141.23046875 C-75.01744629 142.08020264 -75.43333008 142.92993652 -75.86181641 143.80541992 C-77 146 -77 146 -79 149 C-79.680625 148.071875 -79.680625 148.071875 -80.375 147.125 C-82.84919008 143.88952067 -83.45818743 143.09341596 -87.625 142.375 C-89.295625 142.189375 -89.295625 142.189375 -91 142 C-89.02 140.02 -89.02 140.02 -87 138 C-90.00617269 134.99382731 -92.82381598 135.40414684 -97 135 C-93.64672361 132.76448241 -93.09256343 132.82716472 -89.3125 133.375 C-88.50425781 133.48585937 -87.69601563 133.59671875 -86.86328125 133.7109375 C-85.94095703 133.85402344 -85.94095703 133.85402344 -85 134 C-85.78375 133.236875 -86.5675 132.47375 -87.375 131.6875 C-90 129 -90 129 -92 126 C-90.68 126.66 -89.36 127.32 -88 128 C-86.86200288 124.48255435 -86.86072427 123.29015776 -88.5 119.875 C-88.995 118.92625 -89.49 117.9775 -90 117 C-89.67 116.01 -89.34 115.02 -89 114 C-86.69 116.64 -84.38 119.28 -82 122 C-82.33 121.01 -82.66 120.02 -83 119 C-82.505 118.01 -82.505 118.01 -82 117 C-82.77201318 115.42673072 -83.61843509 113.88960354 -84.5 112.375 C-87.17495464 107.30511351 -87.32747318 104.51411936 -86 99 C-85.67 99 -85.34 99 -85 99 C-84.93683594 99.6290625 -84.87367187 100.258125 -84.80859375 100.90625 C-83.77938365 108.09988691 -81.20882149 112.01401579 -76 117 C-76.31324219 116.32453125 -76.62648438 115.6490625 -76.94921875 114.953125 C-80.11862061 106.04580973 -79.7582031 96.56870307 -76 88 C-75.34 88.99 -74.68 89.98 -74 91 C-73.90203125 90.33613281 -73.8040625 89.67226562 -73.703125 88.98828125 C-73.55359375 88.10527344 -73.4040625 87.22226563 -73.25 86.3125 C-73.11078125 85.44238281 -72.9715625 84.57226562 -72.828125 83.67578125 C-72 81 -72 81 -68 76 C-67.01 80.29 -66.02 84.58 -65 89 C-65.02320312 87.96359375 -65.04640625 86.9271875 -65.0703125 85.859375 C-65.08907667 84.48959056 -65.10727618 83.1197983 -65.125 81.75 C-65.14175781 81.06808594 -65.15851563 80.38617188 -65.17578125 79.68359375 C-65.21269994 75.88096891 -65.01098049 73.24190094 -63 70 C-62.43468897 68.64700441 -61.87233991 67.29276857 -61.3125 65.9375 C-58.82387345 60.30287386 -55.72639138 54.91039258 -52 50 C-51.34 50 -50.68 50 -50 50 C-48.68 47.03 -47.36 44.06 -46 41 C-45 44 -45 44 -45 45 C-43.68 42.03 -42.36 39.06 -41 36 C-40.01 36.495 -40.01 36.495 -39 37 C-38.69707031 36.37351563 -38.39414063 35.74703125 -38.08203125 35.1015625 C-34.29706514 27.71796707 -34.29706514 27.71796707 -29 26 C-28.71125 25.2575 -28.4225 24.515 -28.125 23.75 C-26.68663985 20.23400852 -24.59885992 18.73639443 -21.65625 16.4296875 C-19.7473865 14.91075059 -19.7473865 14.91075059 -18 12 C-17.01 12.495 -17.01 12.495 -16 13 C-15.01 12.67 -14.02 12.34 -13 12 C-12.62875 10.88625 -12.62875 10.88625 -12.25 9.75 C-10.50216588 5.90476495 -7.6500324 4.02301324 -4 2 C-3.34 2 -2.68 2 -2 2 C-1.34 1.34 -0.68 0.68 0 0 Z " fill="#2E2E31" transform="translate(135,44)"/>
<path d="M0 0 C0.99 0.495 0.99 0.495 2 1 C-5.73917598 11.79259777 -5.73917598 11.79259777 -8.8125 15.375 C-11.01806972 17.88494848 -11.01806972 17.88494848 -12.5 20.5 C-14.36595881 23.60993135 -16.68016465 26.21619758 -19 29 C-19.433125 29.804375 -19.86625 30.60875 -20.3125 31.4375 C-26.8160866 41.31331668 -38.0920478 45.75923159 -49 49 C-47.72125 48.814375 -46.4425 48.62875 -45.125 48.4375 C-41.25 47.875 -41.25 47.875 -39 49 C-39 49.66 -39 50.32 -39 51 C-40.65 51.66 -42.3 52.32 -44 53 C-44 53.66 -44 54.32 -44 55 C-45.175625 55.185625 -45.175625 55.185625 -46.375 55.375 C-49.14057822 55.79117993 -49.14057822 55.79117993 -51 58 C-51 58.99 -51 59.98 -51 61 C-51.33 61.66 -51.66 62.32 -52 63 C-52.66 63 -53.32 63 -54 63 C-54.33 64.32 -54.66 65.64 -55 67 C-53.515 67.495 -53.515 67.495 -52 68 C-53.98 68.99 -53.98 68.99 -56 70 C-56 70.66 -56 71.32 -56 72 C-53.36 71.67 -50.72 71.34 -48 71 C-50.51632049 73.85984547 -53.33885553 75.41468822 -56.6875 77.1875 C-57.68136719 77.71730469 -58.67523438 78.24710937 -59.69921875 78.79296875 C-60.45847656 79.19128906 -61.21773437 79.58960938 -62 80 C-60.35 80.33 -58.7 80.66 -57 81 C-59.55573961 84.0171926 -62.38380793 85.2432533 -66 86.75 C-67.5778125 87.42289063 -67.5778125 87.42289063 -69.1875 88.109375 C-72 89 -72 89 -75 88 C-75 87.34 -75 86.68 -75 86 C-71.62902617 84.50178941 -69.79557881 84 -66 84 C-66 83.34 -66 82.68 -66 82 C-68.31 81.67 -70.62 81.34 -73 81 C-73 81.66 -73 82.32 -73 83 C-73.66 83 -74.32 83 -75 83 C-76.125 79.25 -76.125 79.25 -75 77 C-74.34 77 -73.68 77 -73 77 C-73.33 75.68 -73.66 74.36 -74 73 C-72.75264433 72.3490741 -71.50198168 71.70448331 -70.25 71.0625 C-69.20585938 70.52302734 -69.20585938 70.52302734 -68.140625 69.97265625 C-66.09775567 69.04441818 -64.18884624 68.46833422 -62 68 C-63.4540625 67.814375 -63.4540625 67.814375 -64.9375 67.625 C-65.948125 67.41875 -66.95875 67.2125 -68 67 C-68.33 66.34 -68.66 65.68 -69 65 C-67.68 65 -66.36 65 -65 65 C-64.67 64.34 -64.34 63.68 -64 63 C-63.34 62.690625 -62.68 62.38125 -62 62.0625 C-59.65391779 61.1108154 -59.65391779 61.1108154 -59 58 C-61.64 58.33 -64.28 58.66 -67 59 C-66.175 58.21625 -65.35 57.4325 -64.5 56.625 C-61.77011494 54.36278736 -61.77011494 54.36278736 -62 52 C-60.515 51.505 -60.515 51.505 -59 51 C-59.66 50.67 -60.32 50.34 -61 50 C-60.2884375 49.4121875 -60.2884375 49.4121875 -59.5625 48.8125 C-57.79255905 47.0724834 -57.79255905 47.0724834 -57.5625 44.5 C-57 42 -57 42 -54.9375 40.1875 C-54.298125 39.795625 -53.65875 39.40375 -53 39 C-53.66 38.34 -54.32 37.68 -55 37 C-53.6875 35.5 -53.6875 35.5 -52 34 C-51.01 34 -50.02 34 -49 34 C-49.33 33.01 -49.66 32.02 -50 31 C-48.73308493 30.32591692 -47.46129251 29.66099503 -46.1875 29 C-45.47980469 28.62875 -44.77210938 28.2575 -44.04296875 27.875 C-42 27 -42 27 -39 27 C-39 26.01 -39 25.02 -39 24 C-39 23 -39 22 -39 21 C-38.34 21 -37.68 21 -37 21 C-36.79375 20.21625 -36.5875 19.4325 -36.375 18.625 C-35 16 -35 16 -31.875 14.6875 C-30.92625 14.460625 -29.9775 14.23375 -29 14 C-29.99 13.34 -30.98 12.68 -32 12 C-31.34 11.34 -30.68 10.68 -30 10 C-29.01 10 -28.02 10 -27 10 C-27 9.34 -27 8.68 -27 8 C-20.565 7.505 -20.565 7.505 -14 7 C-14 6.34 -14 5.68 -14 5 C-13.07316406 4.72285156 -12.14632812 4.44570312 -11.19140625 4.16015625 C-9.99386719 3.79792969 -8.79632813 3.43570313 -7.5625 3.0625 C-6.36753906 2.70285156 -5.17257813 2.34320313 -3.94140625 1.97265625 C-1.14132455 1.29110858 -1.14132455 1.29110858 0 0 Z " fill="#4B4B4D" transform="translate(179,62)"/>
<path d="M0 0 C0.99 0.33 1.98 0.66 3 1 C2.64397705 1.52094238 2.2879541 2.04188477 1.92114258 2.57861328 C-7.27414059 16.08110649 -15.8897352 29.81982245 -24 44 C-24.4429541 44.77408203 -24.8859082 45.54816406 -25.34228516 46.34570312 C-36.47724552 65.90353592 -47.8632628 85.97338209 -56 107 C-55.01 107.33 -54.02 107.66 -53 108 C-52.443125 107.690625 -51.88625 107.38125 -51.3125 107.0625 C-47.84504879 105.46934674 -44.7944776 105.87351741 -41 106 C-42.95216435 104.04783565 -44.53199953 103.15173355 -47 102 C-45.625 100.5 -45.625 100.5 -44 99 C-43.34 99 -42.68 99 -42 99 C-42.33 98.01 -42.66 97.02 -43 96 C-35.7109102 94.08681157 -29.45067301 93.95180646 -22 95 C-22 95.33 -22 95.66 -22 96 C-24.64 96.33 -27.28 96.66 -30 97 C-30 97.33 -30 97.66 -30 98 C-32.97 98.495 -32.97 98.495 -36 99 C-30.97350697 100.57077907 -26.23880078 101.44854729 -21 102 C-21 102.33 -21 102.66 -21 103 C-22.44632813 102.98259766 -22.44632813 102.98259766 -23.921875 102.96484375 C-25.18515625 102.95582031 -26.4484375 102.94679688 -27.75 102.9375 C-29.62945312 102.92009766 -29.62945312 102.92009766 -31.546875 102.90234375 C-34.28536501 102.97978973 -36.41880293 103.17219185 -39 104 C-38.484375 104.78375 -37.96875 105.5675 -37.4375 106.375 C-36.963125 107.24125 -36.48875 108.1075 -36 109 C-36.33 109.66 -36.66 110.32 -37 111 C-37.99 110.505 -37.99 110.505 -39 110 C-39.33 110.66 -39.66 111.32 -40 112 C-41.65 111.01 -43.3 110.02 -45 109 C-45 109.66 -45 110.32 -45 111 C-45.99 111.495 -45.99 111.495 -47 112 C-47.495 113.485 -47.495 113.485 -48 115 C-48.66 113.68 -49.32 112.36 -50 111 C-50.99 111 -51.98 111 -53 111 C-53.66 111 -54.32 111 -55 111 C-54.814375 112.423125 -54.814375 112.423125 -54.625 113.875 C-54.59644455 118.58664906 -57.00022775 121.67629039 -59.48046875 125.52734375 C-61.53751135 128.87466499 -62.74095441 132.2989594 -64 136 C-64.65104737 137.81816886 -65.31825435 139.63061772 -66 141.4375 C-66.309375 142.28183594 -66.61875 143.12617188 -66.9375 143.99609375 C-68 146 -68 146 -71 147 C-71 147.66 -71 148.32 -71 149 C-71.99 149 -72.98 149 -74 149 C-73.99355469 149.81082031 -73.98710938 150.62164062 -73.98046875 151.45703125 C-74.32082595 156.97338656 -74.8417719 161.24122623 -78.921875 165.171875 C-81.18008683 167.11439183 -83.53439121 168.89642737 -85.93359375 170.66015625 C-88.55335197 172.65918195 -90.23627266 174.26274575 -92 177 C-90.35 177.33 -88.7 177.66 -87 178 C-87 178.33 -87 178.66 -87 179 C-89.64 179 -92.28 179 -95 179 C-87.76091102 158.14311659 -87.76091102 158.14311659 -81.85546875 149.7265625 C-80.66445362 147.83240941 -80.66445362 147.83240941 -82 145 C-82.99 145.99 -82.99 145.99 -84 147 C-85.36661647 142.49016565 -84.60005266 139.37909149 -83 135 C-82.34 134.67 -81.68 134.34 -81 134 C-81 135.32 -81 136.64 -81 138 C-78.36443095 136.68221547 -76.27730447 134.85780102 -74 133 C-74.226875 132.443125 -74.45375 131.88625 -74.6875 131.3125 C-75.12910669 128.04461048 -73.81048988 126.68220723 -72 124 C-71.31903578 122.67391178 -70.64669414 121.34313399 -70 120 C-69.34 120 -68.68 120 -68 120 C-67.01 117.36 -66.02 114.72 -65 112 C-65.66 111.67 -66.32 111.34 -67 111 C-65.02 110.505 -65.02 110.505 -63 110 C-63.495 109.01 -63.495 109.01 -64 108 C-62.515 107.505 -62.515 107.505 -61 107 C-59.72004067 105.04152523 -59.72004067 105.04152523 -58.65234375 102.57421875 C-58.21736572 101.64270996 -57.7823877 100.71120117 -57.33422852 99.75146484 C-56.87330811 98.74035645 -56.4123877 97.72924805 -55.9375 96.6875 C-54.94660694 94.56840465 -53.95439588 92.44992515 -52.9609375 90.33203125 C-52.46303711 89.2642041 -51.96513672 88.19637695 -51.45214844 87.09619141 C-44.35987891 71.97444256 -36.49118898 57.37916492 -28 43 C-27.44795898 42.06220703 -26.89591797 41.12441406 -26.32714844 40.15820312 C-18.15069576 26.32687655 -9.41077228 13.02248576 0 0 Z " fill="#313131" transform="translate(118,89)"/>
<path d="M0 0 C4.57097857 2.61198775 8.15825904 5.93361507 9.578125 11.125 C10.26434986 17.19380112 10.83629534 23.69530735 7.890625 29.25 C4.08805156 33.97752373 0.59557454 36.87609538 -5.421875 38.125 C-11.79673247 38.21859497 -16.45581969 37.38161883 -21.421875 33.125 C-26.37375964 27.89801066 -27.91731576 22.51142478 -27.73828125 15.43359375 C-27.02154966 10.20410773 -24.70601308 6.34493117 -20.921875 2.75 C-14.43560962 -1.4660725 -7.51066004 -2.71352879 0 0 Z " fill="#FAFAFA" transform="translate(422.421875,133.875)"/>
<path d="M0 0 C2 0 2 0 3.5625 1.1875 C5.42324579 3.53365773 5.85748179 5.00711758 6 8 C4.5625 10.8125 4.5625 10.8125 3 13 C2.01 12.67 1.02 12.34 0 12 C-0.33 12.66 -0.66 13.32 -1 14 C-1.66 14 -2.32 14 -3 14 C-3.66 16.31 -4.32 18.62 -5 21 C-6.32 21 -7.64 21 -9 21 C-9 16.74139538 -8.73171445 12.92932162 -7 9 C-5.34795544 8.29788106 -3.68076231 7.63028587 -2 7 C-0.62032476 3.46485707 -0.62032476 3.46485707 0 0 Z " fill="#11100C" transform="translate(424,139)"/>
<path d="M0 0 C0.66 0 1.32 0 2 0 C2.50126942 6.14055043 1.31436435 9.02845347 -2 14 C-2.66 14.66 -3.32 15.32 -4 16 C-4.29519531 16.76699219 -4.59039062 17.53398438 -4.89453125 18.32421875 C-6.91396867 23.21225633 -10.63271173 26.97523026 -14 31 C-14.87398437 32.09634766 -14.87398437 32.09634766 -15.765625 33.21484375 C-23.19635285 42.26019237 -32.09300001 46.19013602 -43 50 C-42.34 50.66 -41.68 51.32 -41 52 C-43.99480917 52.8723412 -46.63575911 53.10829766 -49.75 53.0625 C-50.54921875 53.05347656 -51.3484375 53.04445312 -52.171875 53.03515625 C-52.77515625 53.02355469 -53.3784375 53.01195312 -54 53 C-54 53.66 -54 54.32 -54 55 C-55.32 55.66 -56.64 56.32 -58 57 C-57.01 57.66 -56.02 58.32 -55 59 C-56.11375 59.226875 -57.2275 59.45375 -58.375 59.6875 C-62.15192236 60.59881753 -62.15192236 60.59881753 -63.375 63.5625 C-63.58125 64.366875 -63.7875 65.17125 -64 66 C-64.495 66.495 -64.495 66.495 -65 67 C-64.01 67.66 -63.02 68.32 -62 69 C-63.32 69 -64.64 69 -66 69 C-66 69.99 -66 70.98 -66 72 C-67.98 72.495 -67.98 72.495 -70 73 C-70.33 72.01 -70.66 71.02 -71 70 C-71.99 69.67 -72.98 69.34 -74 69 C-73.01 68.505 -73.01 68.505 -72 68 C-72 67.34 -72 66.68 -72 66 C-71.34 66 -70.68 66 -70 66 C-70.103125 65.29875 -70.20625 64.5975 -70.3125 63.875 C-69.94135066 60.4604261 -68.63318642 58.95923859 -66.34375 56.47265625 C-64.83878937 54.8923484 -64.83878937 54.8923484 -63.25 52.4375 C-60.99430828 49.99383397 -59.29457784 48.99709982 -56.375 47.5 C-52.79129093 45.72702799 -52.79129093 45.72702799 -50.75 42.375 C-50.5025 41.59125 -50.255 40.8075 -50 40 C-47.5 38.375 -47.5 38.375 -45 37 C-44.34 36.01 -43.68 35.02 -43 34 C-42.01 34 -41.02 34 -40 34 C-40 33.34 -40 32.68 -40 32 C-39.195625 31.71125 -38.39125 31.4225 -37.5625 31.125 C-34.8673532 30.26737432 -34.8673532 30.26737432 -34 28 C-33.34 28 -32.68 28 -32 28 C-32 27.34 -32 26.68 -32 26 C-31.34 26 -30.68 26 -30 26 C-30 24.68 -30 23.36 -30 22 C-23.76571832 20.01636492 -17.45810245 18.99681713 -11 18 C-11.495 15.03 -11.495 15.03 -12 12 C-9.69 11.01 -7.38 10.02 -5 9 C-5 8.01 -5 7.02 -5 6 C-4.34 5.67 -3.68 5.34 -3 5 C-2.505 4.154375 -2.01 3.30875 -1.5 2.4375 C-1.005 1.633125 -0.51 0.82875 0 0 Z " fill="#202022" transform="translate(206,17)"/>
<path d="M0 0 C1.26026798 2.52053595 0.91874445 3.8542098 0.5625 6.625 C0.46066406 7.44226563 0.35882813 8.25953125 0.25390625 9.1015625 C0.17011719 9.72804688 0.08632812 10.35453125 0 11 C-0.99 11.33 -1.98 11.66 -3 12 C-3 12.66 -3 13.32 -3 14 C-2.34 13.34 -1.68 12.68 -1 12 C-1 12.66 -1 13.32 -1 14 C-0.34 14 0.32 14 1 14 C1.66 11.69 2.32 9.38 3 7 C5 7 5 7 6.5625 8.1875 C8.42324579 10.53365773 8.85748179 12.00711758 9 15 C7.5625 17.8125 7.5625 17.8125 6 20 C5.01 19.67 4.02 19.34 3 19 C2.22862616 21.50696497 2.00832969 23.40815486 2.0625 26.0625 C2 29 2 29 0 32 C-0.66 32 -1.32 32 -2 32 C-2.66 33.98 -3.32 35.96 -4 38 C-4.99 38 -5.98 38 -7 38 C-6.505 41.96 -6.505 41.96 -6 46 C-6.99 45.34 -7.98 44.68 -9 44 C-9.495 44.99 -9.495 44.99 -10 46 C-10.66 46 -11.32 46 -12 46 C-12 46.99 -12 47.98 -12 49 C-12 49.99 -12 50.98 -12 52 C-12.61875 52.20625 -13.2375 52.4125 -13.875 52.625 C-16.8585792 54.55555125 -17.09287605 56.65061928 -18 60 C-18.33 60.66 -18.66 61.32 -19 62 C-19.04022391 64.3329866 -19.04320247 66.66706666 -19 69 C-20.485 68.01 -20.485 68.01 -22 67 C-22.33 67.99 -22.66 68.98 -23 70 C-22.505 70.99 -22.505 70.99 -22 72 C-21.505 72.99 -21.505 72.99 -21 74 C-22 77 -22 77 -24.5 79.4375 C-27.77821032 82.79766558 -28 84.45185524 -28 89 C-30.97 89 -33.94 89 -37 89 C-35.68 87.68 -34.36 86.36 -33 85 C-36.00617269 81.99382731 -38.82381598 82.40414684 -43 82 C-39.64672361 79.76448241 -39.09256343 79.82716472 -35.3125 80.375 C-34.50425781 80.48585938 -33.69601563 80.59671875 -32.86328125 80.7109375 C-32.24839844 80.80632812 -31.63351563 80.90171875 -31 81 C-31.78375 80.236875 -32.5675 79.47375 -33.375 78.6875 C-36 76 -36 76 -38 73 C-36.68 73.66 -35.36 74.32 -34 75 C-32.86200288 71.48255435 -32.86072427 70.29015776 -34.5 66.875 C-34.995 65.92625 -35.49 64.9775 -36 64 C-35.67 63.01 -35.34 62.02 -35 61 C-32.69 63.64 -30.38 66.28 -28 69 C-28.33 68.01 -28.66 67.02 -29 66 C-28.505 65.01 -28.505 65.01 -28 64 C-28.77201318 62.42673072 -29.61843509 60.88960354 -30.5 59.375 C-33.17495464 54.30511351 -33.32747318 51.51411936 -32 46 C-31.67 46 -31.34 46 -31 46 C-30.90525391 46.94359375 -30.90525391 46.94359375 -30.80859375 47.90625 C-29.77938365 55.09988691 -27.20882149 59.01401579 -22 64 C-22.31324219 63.32453125 -22.62648438 62.6490625 -22.94921875 61.953125 C-26.11862061 53.04580973 -25.7582031 43.56870307 -22 35 C-21.34 35.99 -20.68 36.98 -20 38 C-19.90203125 37.33613281 -19.8040625 36.67226562 -19.703125 35.98828125 C-19.55359375 35.10527344 -19.4040625 34.22226563 -19.25 33.3125 C-19.11078125 32.44238281 -18.9715625 31.57226562 -18.828125 30.67578125 C-18 28 -18 28 -14 23 C-12.515 29.435 -12.515 29.435 -11 36 C-11.02320312 34.96359375 -11.04640625 33.9271875 -11.0703125 32.859375 C-11.08907667 31.48959056 -11.10727618 30.1197983 -11.125 28.75 C-11.14175781 28.06808594 -11.15851563 27.38617188 -11.17578125 26.68359375 C-11.21271545 22.87937128 -11.0121562 20.24220221 -9 17 C-8.39107231 15.58537324 -7.78709191 14.16860895 -7.1875 12.75 C-5.1953958 8.21702327 -2.7374952 4.11746205 0 0 Z " fill="#514F53" transform="translate(81,97)"/>
<path d="M0 0 C1.65 0.33 3.3 0.66 5 1 C3.4908115 5.53609198 0.93328682 8.99830196 -1.9375 12.75 C-22.18707648 39.85291979 -38.31049393 70.14052306 -53.21899414 100.42333984 C-53.68684326 101.37289551 -54.15469238 102.32245117 -54.63671875 103.30078125 C-55.25099731 104.55628784 -55.25099731 104.55628784 -55.87768555 105.8371582 C-57 108 -57 108 -59 111 C-59.45375 110.38125 -59.9075 109.7625 -60.375 109.125 C-62.41214871 106.4610363 -64.18629365 104.87580423 -67 103 C-65.35 103 -63.7 103 -62 103 C-62.33 102.01 -62.66 101.02 -63 100 C-59.83478261 93.55652174 -59.83478261 93.55652174 -56 91 C-56.66 88.36 -57.32 85.72 -58 83 C-55 81 -55 81 -54 81 C-54 78.69 -54 76.38 -54 74 C-53.34 74 -52.68 74 -52 74 C-51.7525 73.2575 -51.505 72.515 -51.25 71.75 C-49.90852699 68.79875938 -48.39094474 67.15185026 -46 65 C-46.66 64.34 -47.32 63.68 -48 63 C-47.34 63 -46.68 63 -46 63 C-46 62.34 -46 61.68 -46 61 C-45.34 61 -44.68 61 -44 61 C-43.67 60.01 -43.34 59.02 -43 58 C-42.34 58.33 -41.68 58.66 -41 59 C-40.34 57.35 -39.68 55.7 -39 54 C-38.01 54 -37.02 54 -36 54 C-36.33 53.01 -36.66 52.02 -37 51 C-35.515 50.505 -35.515 50.505 -34 50 C-32.28432339 46.49705129 -32.28432339 46.49705129 -31 43 C-30.34 43 -29.68 43 -29 43 C-29.495 41.02 -29.495 41.02 -30 39 C-28.02 38.505 -28.02 38.505 -26 38 C-25.9175 37.278125 -25.835 36.55625 -25.75 35.8125 C-24.84286169 32.41073132 -23.39989121 30.54533916 -21 28 C-20.34 28 -19.68 28 -19 28 C-18.76216797 26.84371094 -18.76216797 26.84371094 -18.51953125 25.6640625 C-18.28621094 24.66117188 -18.05289063 23.65828125 -17.8125 22.625 C-17.48185547 21.12839844 -17.48185547 21.12839844 -17.14453125 19.6015625 C-16 17 -16 17 -13.5 15.84375 C-12.675 15.5653125 -11.85 15.286875 -11 15 C-9.15725024 11.98303591 -9.15725024 11.98303591 -8 9 C-7.01 9.33 -6.02 9.66 -5 10 C-5 9.34 -5 8.68 -5 8 C-4.34 7.67 -3.68 7.34 -3 7 C-3 6.01 -3 5.02 -3 4 C-2.34 4 -1.68 4 -1 4 C-0.67 2.68 -0.34 1.36 0 0 Z " fill="#131314" transform="translate(115,82)"/>
<path d="M0 0 C0.66 0.33 1.32 0.66 2 1 C1.34169459 2.66998689 0.6736878 4.33615897 0 6 C-0.21369796 7.78873108 -0.40056312 9.58084222 -0.5625 11.375 C-1.34250146 16.09305763 -2.54522629 18.01677281 -6.375 20.875 C-7.17550781 21.40996094 -7.97601563 21.94492187 -8.80078125 22.49609375 C-11.43258321 24.29581623 -13.18408189 26.39455228 -15 29 C-13.35 29.33 -11.7 29.66 -10 30 C-10 30.33 -10 30.66 -10 31 C-12.64 31 -15.28 31 -18 31 C-14.37588667 20.5583948 -10.67207939 10.52099041 -5 1 C-3.90101298 4.29696105 -4.12875556 5.40494903 -4.9375 8.6875 C-5.13214844 9.49574219 -5.32679687 10.30398437 -5.52734375 11.13671875 C-5.68332031 11.75160156 -5.83929688 12.36648437 -6 13 C-5.01 13 -4.02 13 -3 13 C-2.96261719 12.40832031 -2.92523438 11.81664062 -2.88671875 11.20703125 C-2.48623099 6.39332549 -1.9614965 2.99158223 1 -1 C0.67 -0.67 0.34 -0.34 0 0 Z " fill="#373638" transform="translate(43,236)"/>
<path d="M0 0 C4.15726844 1.71713262 6.59261241 4.21696236 9 8 C9.33 10.31 9.66 12.62 10 15 C1.42 15 -7.16 15 -16 15 C-14.88341807 26.21996064 -14.88341807 26.21996064 -11 32 C-6.9787772 34.721932 -2.68830155 34.56192523 2 34 C4.8552976 32.75528019 4.8552976 32.75528019 7 31 C7.99 30.34 8.98 29.68 10 29 C8.27592413 33.38855677 5.17026127 35.91486937 1 38 C-4.51419784 38.58572663 -10.1847784 39.1262223 -15 36 C-19.41890753 32.12130121 -21.58615813 27.90079723 -22.4140625 22.09765625 C-22.74960338 15.0954479 -21.68933427 10.2882438 -17 5 C-11.40830813 -0.07153449 -7.39453488 -0.64249513 0 0 Z " fill="#373633" transform="translate(479,133)"/>
<path d="M0 0 C4.75529781 -1.17075721 9.35232481 -1.79653184 14 0 C19.07183863 4.07111086 22.51992273 9.94010094 26.12011719 15.27832031 C29.39185003 20.01510963 32.9697642 24.51716871 36.5 29.0625 C41.24804652 35.22613123 45.76966553 41.46838722 50 48 C50.04945048 42.09180929 50.08574364 36.18373916 50.10986328 30.27539062 C50.1199187 28.26560365 50.13356485 26.2558313 50.15087891 24.24609375 C50.17514724 21.35673412 50.18648771 18.46756798 50.1953125 15.578125 C50.20563507 14.68007141 50.21595764 13.78201782 50.22659302 12.85675049 C50.22674408 12.01618103 50.22689514 11.17561157 50.22705078 10.30957031 C50.23371262 9.20370575 50.23371262 9.20370575 50.24050903 8.07550049 C49.83274316 4.55663775 48.47689191 2.47689191 46 0 C49.3 0 52.6 0 56 0 C55.01 1.32 54.02 2.64 53 4 C52.53188755 6.53749586 52.53188755 6.53749586 52.56762695 9.31933594 C52.54783279 10.38013367 52.52803864 11.4409314 52.50764465 12.53387451 C52.50125473 13.67253967 52.49486481 14.81120483 52.48828125 15.984375 C52.47033005 17.15510559 52.45237885 18.32583618 52.43388367 19.53204346 C52.37970134 23.27132567 52.34585858 27.01047964 52.3125 30.75 C52.27933403 33.28517412 52.24484506 35.82033131 52.20898438 38.35546875 C52.12397016 44.57019752 52.05565366 50.78494272 52 57 C48.42624096 56.24160412 47.23786304 55.50034937 45.109375 52.484375 C44.57248047 51.73776611 44.03558594 50.99115723 43.48242188 50.22192383 C42.62487305 48.99832153 42.62487305 48.99832153 41.75 47.75 C40.50698524 46.01825444 39.26212072 44.28783544 38.015625 42.55859375 C37.36400391 41.65093262 36.71238281 40.74327148 36.04101562 39.80810547 C32.60645127 35.08270365 29.05316624 30.44900924 25.5 25.8125 C23.58831179 23.31447331 21.6769977 20.81619358 19.76953125 18.31494141 C18.58536506 16.76578801 17.39519872 15.22120356 16.19921875 13.68115234 C15.64878906 12.96523926 15.09835937 12.24932617 14.53125 11.51171875 C14.04205078 10.88096436 13.55285156 10.25020996 13.04882812 9.6003418 C12 8 12 8 12 6 C11.34 6 10.68 6 10 6 C10.09233693 12.33571654 10.19965151 18.67105245 10.31738281 25.00634766 C10.35566602 27.16156253 10.39052004 29.31684116 10.421875 31.47216797 C10.4675395 34.57021876 10.52553212 37.66783091 10.5859375 40.765625 C10.59748871 41.72929993 10.60903992 42.69297485 10.62094116 43.68585205 C10.64081085 44.58648376 10.66068054 45.48711548 10.68115234 46.41503906 C10.69447601 47.20557678 10.70779968 47.9961145 10.7215271 48.81060791 C11.03843627 51.30219123 11.65522231 52.88253489 13 55 C13.99 55.66 14.98 56.32 16 57 C11.05 57 6.1 57 1 57 C1 56.67 1 56.34 1 56 C1.969375 55.71125 2.93875 55.4225 3.9375 55.125 C7.10664203 54.35785318 7.10664203 54.35785318 8 52 C8.09003966 50.42708792 8.11756509 48.85038425 8.11352539 47.27490234 C8.11344986 46.29403656 8.11337433 45.31317078 8.11329651 44.30258179 C8.10813522 43.24108917 8.10297394 42.17959656 8.09765625 41.0859375 C8.0962413 40.00116119 8.09482635 38.91638489 8.09336853 37.79873657 C8.08775802 34.32413 8.07520372 30.84958719 8.0625 27.375 C8.05748635 25.02343843 8.05292321 22.67187585 8.04882812 20.3203125 C8.03778518 14.54685314 8.02103679 8.77343112 8 3 C5.36 2.34 2.72 1.68 0 1 C0 0.67 0 0.34 0 0 Z " fill="#161511" transform="translate(336,114)"/>
<path d="M0 0 C0 3.96 0 7.92 0 12 C-1.3082578 10.03761331 -2.56162256 8.03721846 -3.75 6 C-6.33147681 2.55803092 -7.95246058 1.40107134 -12 0 C-15.98485181 -0.56367255 -19.18251863 -0.39096935 -22.875 1.375 C-26.07554047 3.67610998 -26.07554047 3.67610998 -27.37109375 7.20703125 C-27.39300781 8.06683594 -27.41492188 8.92664063 -27.4375 9.8125 C-27.47746094 10.66457031 -27.51742187 11.51664063 -27.55859375 12.39453125 C-26.74076515 16.20915837 -24.99884674 17.55034917 -22 20 C-19.44864475 21.48370055 -16.80861953 22.71330527 -14.125 23.9375 C-0.08272876 30.65212597 -0.08272876 30.65212597 3 38 C3.4850824 43.23888993 2.85631117 46.56779301 0 51 C-5.55576323 56.12839682 -9.7565757 57.36436322 -17.25 57.3125 C-18.38973267 57.31056641 -18.38973267 57.31056641 -19.55249023 57.30859375 C-24.95119014 57.2157628 -29.13957603 56.48191862 -34 54 C-34.33 49.38 -34.66 44.76 -35 40 C-33.00295012 41.99704988 -32.31191187 43.33909237 -31.1875 45.875 C-29.38380013 49.58335309 -27.52883343 51.73792729 -24 54 C-19.10194672 55.63268443 -14.09031053 55.59073993 -9.125 54.1875 C-6.92731183 52.95938014 -5.60896905 51.92810341 -4 50 C-2.88186195 45.99271331 -2.76199769 42.11861083 -3.625 38.0625 C-5.4490443 35.32643355 -6.90722506 35.19940299 -10 34 C-13.22337037 32.48575693 -16.39249241 30.87242582 -19.5625 29.25 C-20.41263672 28.83234375 -21.26277344 28.4146875 -22.13867188 27.984375 C-27.17135509 25.39501015 -30.44920802 23.28131456 -33 18 C-34.00423452 13.15604523 -33.50668898 9.0944482 -31.4375 4.625 C-23.33182884 -4.10418433 -10.7794128 -4.20413916 0 0 Z " fill="#151410" transform="translate(216,115)"/>
<path d="M0 0 C0.92425781 -0.0309375 1.84851563 -0.061875 2.80078125 -0.09375 C5.86206078 0.53590425 8.15486272 1.34678355 10.49389648 3.47607422 C13.38945179 8.38590312 12.5757416 14.76625759 12.5625 20.3125 C12.58063731 21.68688718 12.60144329 23.0612419 12.625 24.43554688 C12.67209373 27.79097546 12.69194084 31.14430845 12.6875 34.5 C14.3375 34.83 15.9875 35.16 17.6875 35.5 C15.79192866 38.02742845 14.88160622 38.47169284 11.6875 38.9375 C8.6875 38.5 8.6875 38.5 6.8125 36.5 C6.44125 35.84 6.07 35.18 5.6875 34.5 C4.718125 35.16 3.74875 35.82 2.75 36.5 C-1.54728482 38.94560925 -5.46148926 39.39902902 -10.3125 38.5 C-12.875 37 -12.875 37 -14.3125 34.5 C-14.88082657 30.02442828 -14.95501277 27.72915486 -12.875 23.75 C-7.16104331 18.7328673 -0.76236303 17.04180822 6.6875 16.5 C6.46598424 9.91321168 6.46598424 9.91321168 4.25 3.8125 C0.12861449 1.70154645 -3.86825361 2.71971247 -8.3125 3.5 C-5.80673294 0.34893507 -3.95749962 0.04378976 0 0 Z " fill="#141310" transform="translate(239.3125,132.5)"/>
<path d="M0 0 C3.53955542 0.48125534 5.32533229 1.70386618 7.671875 4.36328125 C9.06747545 7.15448216 8.88995788 9.56533817 8.98828125 12.68359375 C9.03017578 13.94042969 9.07207031 15.19726562 9.11523438 16.4921875 C9.15455078 17.81089844 9.19386719 19.12960938 9.234375 20.48828125 C9.27757012 21.82813876 9.32118473 23.16798281 9.36523438 24.5078125 C9.47158481 27.7928594 9.57361308 31.07798406 9.671875 34.36328125 C11.321875 34.69328125 12.971875 35.02328125 14.671875 35.36328125 C12.77630366 37.8907097 11.86598122 38.33497409 8.671875 38.80078125 C5.671875 38.36328125 5.671875 38.36328125 3.796875 36.36328125 C3.425625 35.70328125 3.054375 35.04328125 2.671875 34.36328125 C1.7025 35.02328125 0.733125 35.68328125 -0.265625 36.36328125 C-4.56290982 38.8088905 -8.47711426 39.26231027 -13.328125 38.36328125 C-15.890625 36.86328125 -15.890625 36.86328125 -17.328125 34.36328125 C-17.89645157 29.88770953 -17.97063777 27.59243611 -15.890625 23.61328125 C-10.17666831 18.59614855 -3.77798803 16.90508947 3.671875 16.36328125 C3.45035924 9.77649293 3.45035924 9.77649293 1.234375 3.67578125 C-2.88701051 1.5648277 -6.88387861 2.58299372 -11.328125 3.36328125 C-8.14470539 -0.66406503 -4.81693132 -0.12106044 0 0 Z " fill="#13120F" transform="translate(318.328125,132.63671875)"/>
<path d="M0 0 C0.33 0 0.66 0 1 0 C1.01213028 0.88869781 1.01213028 0.88869781 1.02450562 1.79534912 C1.1105396 7.9598137 1.21004284 14.1239563 1.31738281 20.28808594 C1.35567417 22.5888122 1.39052674 24.88959835 1.421875 27.19042969 C1.4675217 30.49696262 1.52551747 33.80308312 1.5859375 37.109375 C1.59748871 38.13867126 1.60903992 39.16796753 1.62094116 40.22845459 C1.64081085 41.18914856 1.66068054 42.14984253 1.68115234 43.13964844 C1.69447601 43.98348083 1.70779968 44.82731323 1.7215271 45.69671631 C2.03044916 48.25184879 2.61347731 49.8372435 4 52 C4.99 52.66 5.98 53.32 7 54 C2.05 54 -2.9 54 -8 54 C-8 53.67 -8 53.34 -8 53 C-7.030625 52.71125 -6.06125 52.4225 -5.0625 52.125 C-1.89335797 51.35785318 -1.89335797 51.35785318 -1 49 C-0.88159887 47.42793357 -0.82296967 45.85116731 -0.79467773 44.27490234 C-0.77473251 43.29403656 -0.75478729 42.31317078 -0.73423767 41.30258179 C-0.71752518 40.24108917 -0.70081268 39.17959656 -0.68359375 38.0859375 C-0.66281265 37.00116119 -0.64203156 35.91638489 -0.62062073 34.79873657 C-0.55509366 31.32422379 -0.49622553 27.84963376 -0.4375 24.375 C-0.39431779 22.02342942 -0.3507036 19.67186674 -0.30664062 17.3203125 C-0.19940907 11.5469573 -0.09764856 5.7735248 0 0 Z " fill="#000000" transform="translate(345,117)"/>
<path d="M0 0 C2.8125 2.0625 2.8125 2.0625 5 5 C5.33 7.31 5.66 9.62 6 12 C-0.6 12 -7.2 12 -14 12 C-13.05458503 6.32751016 -12.75801555 4.86854542 -9 1 C-5.63633609 -0.1212213 -3.52465728 -0.42295887 0 0 Z " fill="#F9F9F9" transform="translate(477,134)"/>
<path d="M0 0 C0.66 0.33 1.32 0.66 2 1 C2 1.66 2 2.32 2 3 C2.66 3 3.32 3 4 3 C7.37954616 9.44575692 7.37954616 9.44575692 6.40380859 13.44140625 C5.28030245 16.03903782 4.03503462 18.5113616 2.6875 21 C2.24470703 21.87011719 1.80191406 22.74023438 1.34570312 23.63671875 C0.25463568 25.77192601 -0.86022569 27.8905099 -2 30 C-4 28 -6 26 -8 24 C-8.99 23.34 -9.98 22.68 -11 22 C-9.35 22 -7.7 22 -6 22 C-6.33 21.01 -6.66 20.02 -7 19 C-3.83478261 12.55652174 -3.83478261 12.55652174 0 10 C-0.16757812 9.44570312 -0.33515625 8.89140625 -0.5078125 8.3203125 C-0.71148437 7.59585938 -0.91515625 6.87140625 -1.125 6.125 C-1.33382812 5.40570313 -1.54265625 4.68640625 -1.7578125 3.9453125 C-1.83773437 3.30335938 -1.91765625 2.66140625 -2 2 C-1.34 1.34 -0.68 0.68 0 0 Z " fill="#141416" transform="translate(59,163)"/>
<path d="M0 0 C0.66 0.33 1.32 0.66 2 1 C2 1.66 2 2.32 2 3 C1.34 3 0.68 3 0 3 C0.08571661 5.09291157 0.08571661 5.09291157 1 7 C3.96077842 7.98692614 6.45278336 8.14239997 9.54858398 8.23999023 C16.61829198 8.47965503 21.97645918 8.94332966 28 13 C29.47896861 15.95793723 29.4355582 17.70220224 29 21 C25.87556024 26.26691274 21.87573036 29.23838882 16 31 C13.20900326 31.30462206 10.71420495 31.46656161 7.9375 31.4375 C6.9155957 31.4674707 6.9155957 31.4674707 5.87304688 31.49804688 C-0.23686148 31.49217761 -3.7797589 29.2202411 -8 25 C-8.4375 21.625 -8.4375 21.625 -8 18 C-5.625 15.6875 -5.625 15.6875 -3 14 C-2.34 13.34 -1.68 12.68 -1 12 C-1.515625 11.649375 -2.03125 11.29875 -2.5625 10.9375 C-4 9 -4 9 -3.875 5.4375 C-3 2 -3 2 0 0 Z " fill="#F7F7F7" transform="translate(268,158)"/>
<path d="M0 0 C3.1363863 2.11523727 4.84345818 3.47903979 6.6875 6.8125 C7.4277381 10.94953163 7.67061313 14.91233273 5.69921875 18.72265625 C2.83006851 22.33796321 -0.12053507 24.50142907 -4.6796875 25.1484375 C-10.40715733 25.23765043 -13.87697399 24.81529176 -18.3125 20.8125 C-21.19766342 17.3503039 -21.85167865 14.32453116 -21.6640625 9.8046875 C-20.89576022 5.45097459 -18.3819462 2.72916817 -15.125 -0.0625 C-9.94961091 -2.13265564 -5.2046444 -1.86581592 0 0 Z " fill="#F9F9F9" transform="translate(284.3125,134.1875)"/>
<path d="M0 0 C3.71599191 -0.20086443 4.77208445 -0.1519437 8 2 C8.66 1.67 9.32 1.34 10 1 C10.33 1.99 10.66 2.98 11 4 C10.01 5.485 10.01 5.485 9 7 C8.34 7 7.68 7 7 7 C7 7.66 7 8.32 7 9 C6.01 9 5.02 9 4 9 C3.89042969 9.91523438 3.78085937 10.83046875 3.66796875 11.7734375 C3.50941406 12.96195313 3.35085937 14.15046875 3.1875 15.375 C3.03667969 16.55835938 2.88585938 17.74171875 2.73046875 18.9609375 C2 22 2 22 -1 24 C-0.85795259 22.41632253 -0.71119847 20.83306682 -0.5625 19.25 C-0.48128906 18.36828125 -0.40007813 17.4865625 -0.31640625 16.578125 C0 14 0 14 1 10 C0.01 13.63 -0.98 17.26 -2 21 C-2.99 21 -3.98 21 -5 21 C-5.39315606 14.97160702 -4.33683045 9.59552979 -2 4 C-1.34 3.67 -0.68 3.34 0 3 C0 2.01 0 1.02 0 0 Z " fill="#0C0B0B" transform="translate(40,229)"/>
<path d="M0 0 C0.13526139 2.24834496 0.23210804 4.49902514 0.3125 6.75 C0.37050781 8.00296875 0.42851562 9.2559375 0.48828125 10.546875 C0 14 0 14 -2.26171875 16.42578125 C-6.31777489 18.75757957 -8.37732061 18.52191541 -13 18 C-15 16.9375 -15 16.9375 -16 15 C-16.50867257 11.07595445 -16.40462496 8.77406515 -14.5625 5.25 C-10.43618428 1.62689352 -5.4819662 0 0 0 Z " fill="#FBFBFB" transform="translate(322,150)"/>
<path d="M0 0 C0.13526139 2.24834496 0.23210804 4.49902514 0.3125 6.75 C0.37050781 8.00296875 0.42851562 9.2559375 0.48828125 10.546875 C0 14 0 14 -2.26171875 16.42578125 C-6.31777489 18.75757957 -8.37732061 18.52191541 -13 18 C-15 16.9375 -15 16.9375 -16 15 C-16.63243749 10.73104694 -16.56379811 8.77522241 -14 5.25 C-9.70831984 2.03123988 -5.41551386 0 0 0 Z " fill="#FBFBFB" transform="translate(246,150)"/>
<path d="M0 0 C3.1363863 2.11523727 4.84345818 3.47903979 6.6875 6.8125 C7.4277381 10.94953163 7.67061313 14.91233273 5.69921875 18.72265625 C2.83006851 22.33796321 -0.12053507 24.50142907 -4.6796875 25.1484375 C-10.40715733 25.23765043 -13.87697399 24.81529176 -18.3125 20.8125 C-21.19766342 17.3503039 -21.85167865 14.32453116 -21.6640625 9.8046875 C-20.89576022 5.45097459 -18.3819462 2.72916817 -15.125 -0.0625 C-9.94961091 -2.13265564 -5.2046444 -1.86581592 0 0 Z M-15.3125 3.8125 C-17.07553691 9.10161074 -16.98728867 14.04519634 -15 19.25 C-13.40748436 22.03071686 -13.40748436 22.03071686 -10.3125 23.8125 C-6.49296705 24.31069995 -4.80039534 24.11607932 -1.5 22.0625 C2.1298884 18.32890051 2.02192606 14.09493851 1.98046875 9.0703125 C1.52916397 5.59225702 -0.08045666 3.43843334 -2.3125 0.8125 C-7.57887022 -1.82068511 -11.38200121 -1.18060855 -15.3125 3.8125 Z " fill="#191815" transform="translate(422.421875,133.875)"/>
<path d="M0 0 C0.66 0 1.32 0 2 0 C2 1.65 2 3.3 2 5 C2 5.66 2 6.32 2 7 C1.01 7 0.02 7 -1 7 C-1.33 4.69 -1.66 2.38 -2 0 C-1.34 0 -0.68 0 0 0 Z " fill="#141310" transform="translate(260,176)"/>
<path d="M0 0 C5.55555556 0.55555556 5.55555556 0.55555556 7 2 C8.68608966 2.07205511 9.37500659 2.08386068 11.0625 2.0625 C11.98160156 2.05347656 12.90070313 2.04445312 13.84765625 2.03515625 C14.55792969 2.02355469 15.26820313 2.01195312 16 2 C12.93587358 5.2034049 11.07075511 6.17218547 6.625 6.3125 C3.12954466 6.29561374 2.29528706 6.23046795 -0.5625 4 C-1.2740625 3.01 -1.2740625 3.01 -2 2 C-1.34 1.34 -0.68 0.68 0 0 Z " fill="#1C1B18" transform="translate(303,165)"/>
</svg>
