<svg xmlns="http://www.w3.org/2000/svg" viewBox="-12 14 256 256" width="256" height="256">
<rect x="-12" y="14" width="256" height="256" fill="#FFFFFF"/>
<path d="M0 0 C1.60294922 0.01353516 1.60294922 0.01353516 3.23828125 0.02734375 C4.04652344 0.03894531 4.85476562 0.05054688 5.6875 0.0625 C6.1415821 6.5331699 5.34038056 9.69061682 1.6875 15.0625 C1.0275 15.7225 0.3675 16.3825 -0.3125 17.0625 C-0.60769531 17.82949219 -0.90289062 18.59648438 -1.20703125 19.38671875 C-3.22646867 24.27475633 -6.94521173 28.03773026 -10.3125 32.0625 C-10.89515625 32.79339844 -11.4778125 33.52429687 -12.078125 34.27734375 C-19.50885285 43.32269237 -28.40550001 47.25263602 -39.3125 51.0625 C-37.24886888 50.60928672 -35.18663493 50.14970894 -33.125 49.6875 C-31.97644531 49.43226562 -30.82789063 49.17703125 -29.64453125 48.9140625 C-26.72442652 48.16777548 -24.07296611 47.25818212 -21.3125 46.0625 C-24.88795536 51.91228347 -28.45037954 57.48050075 -33.04296875 62.58203125 C-34.7549843 64.57850477 -35.9786767 66.80079961 -37.3125 69.0625 C-38.97916667 71.0625 -40.64583333 73.0625 -42.3125 75.0625 C-42.745625 75.866875 -43.17875 76.67125 -43.625 77.5 C-50.1285866 87.37581668 -61.4045478 91.82173159 -72.3125 95.0625 C-62.04044382 92.88988356 -62.04044382 92.88988356 -52.3125 89.0625 C-53.76708784 93.18383221 -55.85966331 96.45989611 -58.3125 100.0625 C-58.99518138 101.38770503 -59.6632041 102.72062182 -60.3125 104.0625 C-61.8467421 106.8520311 -63.20811922 108.96110153 -65.5 111.1875 C-67.66001105 112.98735573 -67.66001105 112.98735573 -67.3125 116.0625 C-73.76610585 126.93670767 -83.18806691 133.50028346 -94.3125 139.0625 C-92.64960937 138.340625 -92.64960937 138.340625 -88.5 136.5625 C-86.34210938 135.634375 -86.34210938 135.634375 -82.3125 134.0625 C-84.5925 138.0225 -84.5925 138.0225 -87.3125 140.0625 C-85.9925 140.0625 -85.9925 140.0625 -82.3125 141.0625 C-98.62159091 152.17159091 -98.62159091 152.17159091 -106.3125 155.0625 C-103.68684172 156.37532914 -102.61413271 155.79019681 -99.8125 155.0625 C-95.53472222 153.95138889 -95.53472222 153.95138889 -93.3125 155.0625 C-98.48080006 158.2514511 -103.49988629 160.32267005 -109.3125 162.0625 C-109.3125 162.7225 -109.3125 162.7225 -109.3125 163.0625 C-104.84410785 163.27528058 -101.48987474 162.65388085 -97.3125 161.0625 C-100.03728774 164.42841427 -103.38106792 165.50476276 -107.3125 167.0625 C-106.6525 168.3825 -106.6525 168.3825 -106.3125 169.0625 C-108.9525 169.3925 -111.5925 169.7225 -114.3125 170.0625 C-114.3125 170.7225 -114.3125 170.7225 -114.3125 171.0625 C-116.2925 171.3925 -118.2725 171.7225 -120.3125 172.0625 C-115.28600697 173.63327907 -110.55130078 174.51104729 -105.3125 175.0625 C-105.3125 175.7225 -105.3125 175.7225 -105.3125 176.0625 C-107.2409375 176.03929687 -107.2409375 176.03929687 -112.0625 176 C-113.94195312 175.98259766 -113.94195312 175.98259766 -115.859375 175.96484375 C-118.59786501 176.04228973 -120.73130293 176.23469185 -123.3125 177.0625 C-122.28125 178.63 -122.28125 178.63 -120.3125 182.0625 C-120.9725 183.3825 -120.9725 183.3825 -121.3125 184.0625 C-122.6325 183.4025 -122.6325 183.4025 -124.3125 185.0625 C-125.9625 184.0725 -127.6125 183.0825 -129.3125 182.0625 C-129.3125 183.3825 -129.3125 183.3825 -129.3125 184.0625 C-130.6325 184.7225 -130.6325 184.7225 -132.3125 188.0625 C-133.3025 186.0825 -133.3025 186.0825 -134.3125 184.0625 C-136.2925 184.0625 -136.2925 184.0625 -139.3125 184.0625 C-139.18875 185.01125 -139.065 185.96 -138.9375 186.9375 C-138.90894455 191.64914906 -141.31272775 194.73879039 -143.79296875 198.58984375 C-145.85001135 201.93716499 -147.05345441 205.3614594 -148.3125 209.0625 C-149.63075435 212.69311772 -149.63075435 212.69311772 -151.25 217.05859375 C-152.3125 219.0625 -152.3125 219.0625 -155.3125 220.0625 C-155.3125 221.3825 -155.3125 221.3825 -155.3125 222.0625 C-156.3025 222.0625 -157.2925 222.0625 -158.3125 222.0625 C-158.29960937 223.68414062 -158.29960937 223.68414062 -158.29296875 224.51953125 C-158.63332595 230.03588656 -159.1542719 234.30372623 -163.234375 238.234375 C-165.49258683 240.17689183 -167.84689121 241.95892737 -170.24609375 243.72265625 C-172.86585197 245.72168195 -174.54877266 247.32524575 -176.3125 250.0625 C-174.6625 250.3925 -173.0125 250.7225 -171.3125 251.0625 C-171.3125 251.7225 -171.3125 251.7225 -171.3125 252.0625 C-173.9525 252.0625 -176.5925 252.0625 -179.3125 252.0625 C-172.07341102 231.20561659 -172.07341102 231.20561659 -166.16796875 222.7890625 C-164.97695362 220.89490941 -164.97695362 220.89490941 -166.3125 218.0625 C-167.3025 219.0525 -167.3025 219.0525 -168.3125 220.0625 C-169.67911647 215.55266565 -168.91255266 212.44159149 -167.3125 208.0625 C-166.6525 207.7325 -165.9925 207.4025 -165.3125 207.0625 C-165.3125 208.3825 -165.3125 209.7025 -165.3125 211.0625 C-162.67693095 209.74471547 -160.58980447 207.92030102 -158.3125 206.0625 C-158.76625 204.94875 -158.76625 204.94875 -159 204.375 C-159.44160669 201.10711048 -158.12298988 199.74470723 -156.3125 197.0625 C-155.63153578 195.73641178 -154.95919414 194.40563399 -154.3125 193.0625 C-153.6525 193.0625 -152.9925 193.0625 -152.3125 193.0625 C-151.3225 190.4225 -150.3325 187.7825 -149.3125 185.0625 C-150.6325 184.4025 -150.6325 184.4025 -151.3125 184.0625 C-149.9925 183.7325 -148.6725 183.4025 -147.3125 183.0625 C-147.8075 182.0725 -147.8075 182.0725 -148.3125 181.0625 C-147.3225 180.7325 -146.3325 180.4025 -145.3125 180.0625 C-144.03254067 178.10402523 -144.03254067 178.10402523 -142.96484375 175.63671875 C-142.0948877 173.77370117 -142.0948877 173.77370117 -140.25 169.75 C-139.25910694 167.63090465 -138.26689588 165.51242515 -137.2734375 163.39453125 C-128.67237891 145.03694256 -120.80368898 130.44166492 -112.3125 116.0625 C-100.52153532 96.10485444 -89.63454753 79.6761326 -77.3125 64.0625 C-81.61868331 68.09855373 -85.01613287 72.51393996 -88.4375 77.3125 C-89.57574219 78.90255859 -89.57574219 78.90255859 -90.16210938 79.72167969 C-109.55871072 107.02180142 -125.75697743 136.47517638 -140.53149414 166.48583984 C-141.46719238 168.38495117 -141.46719238 168.38495117 -143.19018555 171.8996582 C-144.3125 174.0625 -144.3125 174.0625 -146.3125 177.0625 C-146.993125 176.134375 -146.993125 176.134375 -147.6875 175.1875 C-150.16169008 171.95202067 -150.77068743 171.15591596 -154.9375 170.4375 C-156.608125 170.251875 -156.608125 170.251875 -158.3125 170.0625 C-156.3325 168.0825 -156.3325 168.0825 -154.3125 166.0625 C-157.31867269 163.05632731 -160.13631598 163.46664684 -164.3125 163.0625 C-160.95922361 160.82698241 -160.40506343 160.88966472 -156.625 161.4375 C-155.00851563 161.65921875 -155.00851563 161.65921875 -152.3125 162.0625 C-153.488125 160.9178125 -153.488125 160.9178125 -154.6875 159.75 C-157.3125 157.0625 -157.3125 157.0625 -159.3125 154.0625 C-157.9925 154.7225 -156.6725 155.3825 -155.3125 156.0625 C-154.17450288 152.54505435 -154.17322427 151.35265776 -155.8125 147.9375 C-156.8025 146.04 -156.8025 146.04 -156.3125 142.0625 C-154.0025 144.7025 -151.6925 147.3425 -149.3125 150.0625 C-149.9725 148.0825 -149.9725 148.0825 -149.3125 145.0625 C-150.08451318 143.48923072 -150.93093509 141.95210354 -151.8125 140.4375 C-154.48745464 135.36761351 -154.63997318 132.57661936 -153.3125 127.0625 C-152.9825 127.0625 -152.6525 127.0625 -152.3125 127.0625 C-152.18617188 128.320625 -152.18617188 128.320625 -152.12109375 128.96875 C-151.09188365 136.16238691 -148.52132149 140.07651579 -143.3125 145.0625 C-143.93898437 143.7115625 -143.93898437 143.7115625 -144.26171875 143.015625 C-147.43112061 134.10830973 -147.0707031 124.63120307 -143.3125 116.0625 C-142.3225 117.5475 -142.3225 117.5475 -141.3125 119.0625 C-141.1165625 117.73476562 -141.1165625 117.73476562 -140.5625 114.375 C-140.2840625 112.63476562 -140.2840625 112.63476562 -140.140625 111.73828125 C-139.3125 109.0625 -139.3125 109.0625 -135.3125 104.0625 C-134.3225 108.3525 -133.3325 112.6425 -132.3125 117.0625 C-132.35890625 114.9896875 -132.35890625 114.9896875 -132.4375 109.8125 C-132.47101563 108.44867188 -132.47101563 108.44867188 -132.48828125 107.74609375 C-132.52519994 103.94346891 -132.32348049 101.30440094 -130.3125 98.0625 C-129.18483991 95.35526857 -129.18483991 95.35526857 -128.625 94 C-126.13637345 88.36537386 -123.03889138 82.97289258 -119.3125 78.0625 C-117.9925 78.0625 -117.9925 78.0625 -117.3125 78.0625 C-115.9925 75.0925 -114.6725 72.1225 -113.3125 69.0625 C-112.3125 72.0625 -112.3125 72.0625 -112.3125 73.0625 C-110.9925 70.0925 -109.6725 67.1225 -108.3125 64.0625 C-106.9925 64.7225 -106.9925 64.7225 -105.39453125 63.1640625 C-101.60956514 55.78046707 -101.60956514 55.78046707 -96.3125 54.0625 C-95.735 52.5775 -95.735 52.5775 -88.96875 44.4921875 C-87.0598865 42.97325059 -87.0598865 42.97325059 -85.3125 40.0625 C-83.9925 40.7225 -83.9925 40.7225 -80.3125 40.0625 C-79.94125 38.94875 -79.94125 38.94875 -79.5625 37.8125 C-77.81466588 33.96726495 -74.9625324 32.08551324 -71.3125 30.0625 C-69.9925 30.0625 -69.9925 30.0625 -69.3125 30.0625 C-66.02788838 27.18350331 -66.02788838 27.18350331 -55.3125 19.0625 C-37.72333769 8.68713846 -25.27711298 4.02420811 -11.3125 1.0625 C-9.62125 0.66804688 -9.62125 0.66804688 -8.75 0.46484375 C-5.80042265 -0.02202559 -2.987786 -0.03283281 0 0 Z " fill="#111111" transform="translate(202.3125,15.9375)"/>
</svg>
