<svg xmlns="http://www.w3.org/2000/svg" viewBox="-12 14 256 256" width="256" height="256">
<rect x="-12" y="14" width="256" height="256" rx="48" fill="#FFFFFF"/>
<path d="M0 0 C1.60294922 0.01353516 1.60294922 0.01353516 3.23828125 0.02734375 C4.04652344 0.03894531 4.85476562 0.05054688 5.6875 0.0625 C6.1415821 6.5331699 5.34038056 9.69061682 1.6875 15.0625 C1.0275 15.7225 0.3675 16.3825 -0.3125 17.0625 C-0.60769531 17.82949219 -0.90289062 18.59648438 -1.20703125 19.38671875 C-3.22646867 24.27475633 -6.94521173 28.03773026 -10.3125 32.0625 C-10.89515625 32.79339844 -11.4778125 33.52429687 -12.078125 34.27734375 C-19.50885285 43.32269237 -28.40550001 47.25263602 -39.3125 51.0625 C-37.24886888 50.60928672 -35.18663493 50.14970894 -33.125 49.6875 C-31.97644531 49.43226562 -30.82789063 49.17703125 -29.64453125 48.9140625 C-26.72442652 48.16777548 -24.07296611 47.25818212 -21.3125 46.0625 C-24.88795536 51.91228347 -28.45037954 57.48050075 -33.04296875 62.58203125 C-34.7549843 64.57850477 -35.9786767 66.80079961 -37.3125 69.0625 C-38.97916667 71.0625 -40.64583333 73.0625 -42.3125 75.0625 C-42.745625 75.866875 -43.17875 76.67125 -43.625 77.5 C-50.1285866 87.37581668 -61.4045478 91.82173159 -72.3125 95.0625 C-62.04044382 92.88988356 -62.04044382 92.88988356 -52.3125 89.0625 C-53.76708784 93.18383221 -55.85966331 96.45989611 -58.3125 100.0625 C-58.99518138 101.38770503 -59.6632041 102.72062182 -60.3125 104.0625 C-61.8467421 106.8520311 -63.20811922 108.96110153 -65.5 111.1875 C-67.66001105 112.98735573 -67.66001105 112.98735573 -67.3125 116.0625 C-73.76610585 126.93670767 -83.18806691 133.50028346 -94.3125 139.0625 C-93.48105469 138.7015625 -92.64960937 138.340625 -91.79296875 137.96875 C-90.70628906 137.5046875 -89.61960937 137.040625 -88.5 136.5625 C-87.42105469 136.0984375 -86.34210938 135.634375 -85.23046875 135.15625 C-82.3125 134.0625 -82.3125 134.0625 -79.3125 134.0625 C-81.9525 136.0425 -84.5925 138.0225 -87.3125 140.0625 C-86.6525 140.0625 -85.9925 140.0625 -85.3125 140.0625 C-84.3225 140.3925 -83.3325 140.7225 -82.3125 141.0625 C-98.62159091 152.17159091 -98.62159091 152.17159091 -106.3125 155.0625 C-103.68684172 156.37532914 -102.61413271 155.79019681 -99.8125 155.0625 C-95.53472222 153.95138889 -95.53472222 153.95138889 -93.3125 155.0625 C-98.48080006 158.2514511 -103.49988629 160.32267005 -109.3125 162.0625 C-109.3125 162.3925 -109.3125 162.7225 -109.3125 163.0625 C-104.84410785 163.27528058 -101.48987474 162.65388085 -97.3125 161.0625 C-100.03728774 164.42841427 -103.38106792 165.50476276 -107.3125 167.0625 C-106.9825 167.7225 -106.6525 168.3825 -106.3125 169.0625 C-108.9525 169.3925 -111.5925 169.7225 -114.3125 170.0625 C-114.3125 170.3925 -114.3125 170.7225 -114.3125 171.0625 C-116.2925 171.3925 -118.2725 171.7225 -120.3125 172.0625 C-115.28600697 173.63327907 -110.55130078 174.51104729 -105.3125 175.0625 C-105.3125 175.3925 -105.3125 175.7225 -105.3125 176.0625 C-106.27671875 176.05089844 -107.2409375 176.03929687 -108.234375 176.02734375 C-109.49765625 176.01832031 -110.7609375 176.00929687 -112.0625 176 C-113.94195312 175.98259766 -113.94195312 175.98259766 -115.859375 175.96484375 C-118.59786501 176.04228973 -120.73130293 176.23469185 -123.3125 177.0625 C-122.796875 177.84625 -122.28125 178.63 -121.75 179.4375 C-121.275625 180.30375 -120.80125 181.17 -120.3125 182.0625 C-120.6425 182.7225 -120.9725 183.3825 -121.3125 184.0625 C-121.9725 183.7325 -122.6325 183.4025 -123.3125 183.0625 C-123.6425 183.7225 -123.9725 184.3825 -124.3125 185.0625 C-125.9625 184.0725 -127.6125 183.0825 -129.3125 182.0625 C-129.3125 182.7225 -129.3125 183.3825 -129.3125 184.0625 C-129.9725 184.3925 -130.6325 184.7225 -131.3125 185.0625 C-131.6425 186.0525 -131.9725 187.0425 -132.3125 188.0625 C-133.3025 186.0825 -133.3025 186.0825 -134.3125 184.0625 C-135.3025 184.0625 -136.2925 184.0625 -137.3125 184.0625 C-137.9725 184.0625 -138.6325 184.0625 -139.3125 184.0625 C-139.18875 185.01125 -139.065 185.96 -138.9375 186.9375 C-138.90894455 191.64914906 -141.31272775 194.73879039 -143.79296875 198.58984375 C-145.85001135 201.93716499 -147.05345441 205.3614594 -148.3125 209.0625 C-148.96354737 210.88066886 -149.63075435 212.69311772 -150.3125 214.5 C-150.621875 215.34433594 -150.93125 216.18867188 -151.25 217.05859375 C-152.3125 219.0625 -152.3125 219.0625 -155.3125 220.0625 C-155.3125 220.7225 -155.3125 221.3825 -155.3125 222.0625 C-156.3025 222.0625 -157.2925 222.0625 -158.3125 222.0625 C-158.30605469 222.87332031 -158.29960937 223.68414062 -158.29296875 224.51953125 C-158.63332595 230.03588656 -159.1542719 234.30372623 -163.234375 238.234375 C-165.49258683 240.17689183 -167.84689121 241.95892737 -170.24609375 243.72265625 C-172.86585197 245.72168195 -174.54877266 247.32524575 -176.3125 250.0625 C-174.6625 250.3925 -173.0125 250.7225 -171.3125 251.0625 C-171.3125 251.3925 -171.3125 251.7225 -171.3125 252.0625 C-173.9525 252.0625 -176.5925 252.0625 -179.3125 252.0625 C-172.07341102 231.20561659 -172.07341102 231.20561659 -166.16796875 222.7890625 C-164.97695362 220.89490941 -164.97695362 220.89490941 -166.3125 218.0625 C-167.3025 219.0525 -167.3025 219.0525 -168.3125 220.0625 C-169.67911647 215.55266565 -168.91255266 212.44159149 -167.3125 208.0625 C-166.6525 207.7325 -165.9925 207.4025 -165.3125 207.0625 C-165.3125 208.3825 -165.3125 209.7025 -165.3125 211.0625 C-162.67693095 209.74471547 -160.58980447 207.92030102 -158.3125 206.0625 C-158.539375 205.505625 -158.76625 204.94875 -159 204.375 C-159.44160669 201.10711048 -158.12298988 199.74470723 -156.3125 197.0625 C-155.63153578 195.73641178 -154.95919414 194.40563399 -154.3125 193.0625 C-153.6525 193.0625 -152.9925 193.0625 -152.3125 193.0625 C-151.3225 190.4225 -150.3325 187.7825 -149.3125 185.0625 C-149.9725 184.7325 -150.6325 184.4025 -151.3125 184.0625 C-149.9925 183.7325 -148.6725 183.4025 -147.3125 183.0625 C-147.8075 182.0725 -147.8075 182.0725 -148.3125 181.0625 C-147.3225 180.7325 -146.3325 180.4025 -145.3125 180.0625 C-144.03254067 178.10402523 -144.03254067 178.10402523 -142.96484375 175.63671875 C-142.52986572 174.70520996 -142.0948877 173.77370117 -141.64672852 172.81396484 C-141.18580811 171.80285645 -140.7248877 170.79174805 -140.25 169.75 C-139.25910694 167.63090465 -138.26689588 165.51242515 -137.2734375 163.39453125 C-136.77553711 162.3267041 -136.27763672 161.25887695 -135.76464844 160.15869141 C-128.67237891 145.03694256 -120.80368898 130.44166492 -112.3125 116.0625 C-111.76045898 115.12470703 -111.20841797 114.18691406 -110.63964844 113.22070312 C-100.52153532 96.10485444 -89.63454753 79.6761326 -77.3125 64.0625 C-81.61868331 68.09855373 -85.01613287 72.51393996 -88.4375 77.3125 C-89.00662109 78.1075293 -89.57574219 78.90255859 -90.16210938 79.72167969 C-109.55871072 107.02180142 -125.75697743 136.47517638 -140.53149414 166.48583984 C-140.99934326 167.43539551 -141.46719238 168.38495117 -141.94921875 169.36328125 C-142.35873779 170.20028564 -142.76825684 171.03729004 -143.19018555 171.8996582 C-144.3125 174.0625 -144.3125 174.0625 -146.3125 177.0625 C-146.993125 176.134375 -146.993125 176.134375 -147.6875 175.1875 C-150.16169008 171.95202067 -150.77068743 171.15591596 -154.9375 170.4375 C-156.608125 170.251875 -156.608125 170.251875 -158.3125 170.0625 C-156.3325 168.0825 -156.3325 168.0825 -154.3125 166.0625 C-157.31867269 163.05632731 -160.13631598 163.46664684 -164.3125 163.0625 C-160.95922361 160.82698241 -160.40506343 160.88966472 -156.625 161.4375 C-155.81675781 161.54835937 -155.00851563 161.65921875 -154.17578125 161.7734375 C-153.56089844 161.86882812 -152.94601563 161.96421875 -152.3125 162.0625 C-153.488125 160.9178125 -153.488125 160.9178125 -154.6875 159.75 C-157.3125 157.0625 -157.3125 157.0625 -159.3125 154.0625 C-157.9925 154.7225 -156.6725 155.3825 -155.3125 156.0625 C-154.17450288 152.54505435 -154.17322427 151.35265776 -155.8125 147.9375 C-156.3075 146.98875 -156.8025 146.04 -157.3125 145.0625 C-156.9825 144.0725 -156.6525 143.0825 -156.3125 142.0625 C-154.0025 144.7025 -151.6925 147.3425 -149.3125 150.0625 C-149.6425 149.0725 -149.9725 148.0825 -150.3125 147.0625 C-149.9825 146.4025 -149.6525 145.7425 -149.3125 145.0625 C-150.08451318 143.48923072 -150.93093509 141.95210354 -151.8125 140.4375 C-154.48745464 135.36761351 -154.63997318 132.57661936 -153.3125 127.0625 C-152.9825 127.0625 -152.6525 127.0625 -152.3125 127.0625 C-152.24933594 127.6915625 -152.18617188 128.320625 -152.12109375 128.96875 C-151.09188365 136.16238691 -148.52132149 140.07651579 -143.3125 145.0625 C-143.62574219 144.38703125 -143.93898437 143.7115625 -144.26171875 143.015625 C-147.43112061 134.10830973 -147.0707031 124.63120307 -143.3125 116.0625 C-142.3225 117.5475 -142.3225 117.5475 -141.3125 119.0625 C-141.21453125 118.39863281 -141.1165625 117.73476562 -141.015625 117.05078125 C-140.86609375 116.16777344 -140.7165625 115.28476563 -140.5625 114.375 C-140.42328125 113.50488281 -140.2840625 112.63476562 -140.140625 111.73828125 C-139.3125 109.0625 -139.3125 109.0625 -135.3125 104.0625 C-134.3225 108.3525 -133.3325 112.6425 -132.3125 117.0625 C-132.33570313 116.02609375 -132.35890625 114.9896875 -132.3828125 113.921875 C-132.40157667 112.55209056 -132.41977618 111.1822983 -132.4375 109.8125 C-132.45425781 109.13058594 -132.47101563 108.44867188 -132.48828125 107.74609375 C-132.52519994 103.94346891 -132.32348049 101.30440094 -130.3125 98.0625 C-129.74718897 96.70950441 -129.18483991 95.35526857 -128.625 94 C-126.13637345 88.36537386 -123.03889138 82.97289258 -119.3125 78.0625 C-118.6525 78.0625 -117.9925 78.0625 -117.3125 78.0625 C-115.9925 75.0925 -114.6725 72.1225 -113.3125 69.0625 C-112.3125 72.0625 -112.3125 72.0625 -112.3125 73.0625 C-110.9925 70.0925 -109.6725 67.1225 -108.3125 64.0625 C-107.6525 64.3925 -106.9925 64.7225 -106.3125 65.0625 C-106.00957031 64.43601562 -105.70664063 63.80953125 -105.39453125 63.1640625 C-101.60956514 55.78046707 -101.60956514 55.78046707 -96.3125 54.0625 C-96.02375 53.32 -95.735 52.5775 -95.4375 51.8125 C-93.99913985 48.29650852 -91.91135992 46.79889443 -88.96875 44.4921875 C-87.0598865 42.97325059 -87.0598865 42.97325059 -85.3125 40.0625 C-84.6525 40.3925 -83.9925 40.7225 -83.3125 41.0625 C-82.3225 40.7325 -81.3325 40.4025 -80.3125 40.0625 C-79.94125 38.94875 -79.94125 38.94875 -79.5625 37.8125 C-77.81466588 33.96726495 -74.9625324 32.08551324 -71.3125 30.0625 C-70.6525 30.0625 -69.9925 30.0625 -69.3125 30.0625 C-67.64614098 28.65161066 -66.02788838 27.18350331 -64.4375 25.6875 C-61.49201651 22.91786627 -58.98875363 20.72897295 -55.3125 19.0625 C-53.55967607 18.00466518 -51.81002046 16.94157324 -50.0625 15.875 C-37.72333769 8.68713846 -25.27711298 4.02420811 -11.3125 1.0625 C-10.466875 0.86527344 -9.62125 0.66804688 -8.75 0.46484375 C-5.80042265 -0.02202559 -2.987786 -0.03283281 0 0 Z " fill="#111111" transform="translate(202.3125,15.9375)"/>
<path d="M0 0 C0 0.99 0 1.98 0 3 C-0.66 3.66 -1.32 4.32 -2 5 C-2.68177998 7.65719837 -2.68177998 7.65719837 -3.125 10.625 C-3.46015625 12.63078125 -3.46015625 12.63078125 -4 16 C-3.01 13.69 -2.02 11.38 -1 9 C-0.505 10.485 -0.505 10.485 0 12 C0.66 11.34 1.32 10.68 2 10 C2 11.32 2 12.64 2 14 C4.0162233 13.28436734 4.0162233 13.28436734 6 12 C6.80528889 9.94999129 6.80528889 9.94999129 7 8 C7.99 8.33 8.98 8.66 10 9 C10 9.66 10 10.32 10 11 C12.31 9.02 14.62 7.04 17 5 C17.99 5.495 17.99 5.495 19 6 C15.66267542 9.42618825 12.34408266 12.79751551 8.625 15.8125 C5.9683878 17.7292087 5.9683878 17.7292087 5 20 C4.34 20 3.68 20 3 20 C3.495 21.485 3.495 21.485 4 23 C3.278125 23.37125 2.55625 23.7425 1.8125 24.125 C-2.2200624 26.81337494 -5.54320068 29.81751436 -6.5625 34.6875 C-6.706875 35.450625 -6.85125 36.21375 -7 37 C-9.0625 38.8125 -9.0625 38.8125 -11 40 C-11 39.01 -11 38.02 -11 37 C-15.58466296 41.23331495 -19.02374833 46.00220287 -22.5625 51.125 C-23.48059448 52.44745728 -23.48059448 52.44745728 -24.41723633 53.79663086 C-42.89295617 80.60327288 -58.797146 109.13187314 -73.16772461 138.32104492 C-73.87747437 139.76120972 -73.87747437 139.76120972 -74.6015625 141.23046875 C-75.43333008 142.92993652 -75.43333008 142.92993652 -77 146 C-77 146 -79 149 -79 149 C-79.680625 148.071875 -79.680625 148.071875 -80.375 147.125 C-82.84919008 143.88952067 -83.45818743 143.09341596 -87.625 142.375 C-89.295625 142.189375 -89.295625 142.189375 -91 142 C-89.02 140.02 -89.02 140.02 -87 138 C-90.00617269 134.99382731 -92.82381598 135.40414684 -97 135 C-93.64672361 132.76448241 -93.09256343 132.82716472 -89.3125 133.375 C-87.69601563 133.59671875 -87.69601563 133.59671875 -85 134 C-86.5675 132.47375 -86.5675 132.47375 -90 129 C-92 126 -92 126 -88 128 C-86.86200288 124.48255435 -86.86072427 123.29015776 -90 117 C-89.67 116.01 -89.34 115.02 -89 114 C-86.69 116.64 -84.38 119.28 -82 122 C-82.66 120.02 -82.66 120.02 -82 117 C-82.77201318 115.42673072 -83.61843509 113.88960354 -84.5 112.375 C-87.17495464 107.30511351 -87.32747318 104.51411936 -86 99 C-85.34 99 -84.93683594 99.6290625 -84.80859375 100.90625 C-83.77938365 108.09988691 -81.20882149 112.01401579 -76 117 C-78 113 -78 113 -76.94921875 114.953125 C-80.11862061 106.04580973 -79.7582031 96.56870307 -76 88 C-75.34 88.99 -74.68 89.98 -74 91 C-73.55359375 88.10527344 -73.55359375 88.10527344 -72.828125 83.67578125 C-72 81 -72 81 -68 76 C-67.01 80.29 -66.02 84.58 -65 89 C-65.08907667 84.48959056 -65.08907667 84.48959056 -65.17578125 79.68359375 C-65.21269994 75.88096891 -65.01098049 73.24190094 -63 70 C-62.43468897 68.64700441 -61.87233991 67.29276857 -61.3125 65.9375 C-58.82387345 60.30287386 -55.72639138 54.91039258 -52 50 C-51.34 50 -50.68 50 -50 50 C-48.68 47.03 -47.36 44.06 -46 41 C-45 44 -45 44 -45 45 C-43.68 42.03 -42.36 39.06 -41 36 C-40.01 36.495 -40.01 36.495 -39 37 C-38.08203125 35.1015625 -38.08203125 35.1015625 -29 26 C-28.71125 25.2575 -28.4225 24.515 -28.125 23.75 C-26.68663985 20.23400852 -24.59885992 18.73639443 -21.65625 16.4296875 C-19.7473865 14.91075059 -19.7473865 14.91075059 -18 12 C-17.01 12.495 -17.01 12.495 -16 13 C-15.01 12.67 -14.02 12.34 -13 12 C-12.62875 10.88625 -12.62875 10.88625 -12.25 9.75 C-10.50216588 5.90476495 -7.6500324 4.02301324 -4 2 C-3.34 2 -2.68 2 -2 2 C-1.34 1.34 -0.68 0.68 0 0 Z " fill="#2E2E31" transform="translate(135,44)"/>
</svg>
